<svg width="240" height="240" viewBox="0 0 240 240" fill="none" xmlns="http://www.w3.org/2000/svg">
<path d="M103.2 141.6L77.1 115.5C74.9 113.3 72.152 112.252 68.856 112.356C65.552 112.452 62.8 113.6 60.6 115.8C58.4 118 57.3 120.8 57.3 124.2C57.3 127.6 58.4 130.4 60.6 132.6L94.8 166.8C97 169 99.8 170.1 103.2 170.1C106.6 170.1 109.4 169 111.6 166.8L179.7 98.7C181.9 96.5 182.952 93.748 182.856 90.444C182.752 87.148 181.6 84.4 179.4 82.2C177.2 80 174.4 78.9 171 78.9C167.6 78.9 164.8 80 162.6 82.2L103.2 141.6ZM120 240C103.4 240 87.8 236.848 73.2 230.544C58.6 224.248 45.9 215.7 35.1 204.9C24.3 194.1 15.752 181.4 9.456 166.8C3.152 152.2 0 136.6 0 120C0 103.4 3.152 87.8 9.456 73.2C15.752 58.6 24.3 45.9 35.1 35.1C45.9 24.3 58.6 15.748 73.2 9.444C87.8 3.148 103.4 0 120 0C136.6 0 152.2 3.148 166.8 9.444C181.4 15.748 194.1 24.3 204.9 35.1C215.7 45.9 224.248 58.6 230.544 73.2C236.848 87.8 240 103.4 240 120C240 136.6 236.848 152.2 230.544 166.8C224.248 181.4 215.7 194.1 204.9 204.9C194.1 215.7 181.4 224.248 166.8 230.544C152.2 236.848 136.6 240 120 240ZM120 216C146.6 216 169.252 206.652 187.956 187.956C206.652 169.252 216 146.6 216 120C216 93.4 206.652 70.748 187.956 52.044C169.252 33.348 146.6 24 120 24C93.4 24 70.752 33.348 52.056 52.044C33.352 70.748 24 93.4 24 120C24 146.6 33.352 169.252 52.056 187.956C70.752 206.652 93.4 216 120 216Z" fill="#F7E1C9"/>
</svg>
