<svg width="240" height="240" viewBox="0 0 240 240" fill="none" xmlns="http://www.w3.org/2000/svg">
<path d="M120 0C186.276 0 240 53.724 240 120C240 186.276 186.276 240 120 240C53.724 240 0 186.276 0 120C0 53.724 53.724 0 120 0ZM120 16.74C92.6137 16.74 66.3492 27.6191 46.9842 46.9842C27.6191 66.3492 16.74 92.6137 16.74 120C16.74 147.386 27.6191 173.651 46.9842 193.016C66.3492 212.381 92.6137 223.26 120 223.26C147.386 223.26 173.651 212.381 193.016 193.016C212.381 173.651 223.26 147.386 223.26 120C223.26 92.6137 212.381 66.3492 193.016 46.9842C173.651 27.6191 147.386 16.74 120 16.74V16.74ZM144.576 41.856C152.378 44.8059 159.673 48.9515 166.2 54.144C167.7 55.296 169.14 56.52 170.556 57.828C170.82 58.056 171.048 58.296 171.3 58.548C175.236 62.184 178.812 66.276 181.98 70.668C182.424 71.28 182.892 71.844 183.3 72.432C184.068 73.56 184.788 74.736 185.508 75.912C186.746 77.8955 187.888 79.9379 188.928 82.032C189.564 83.232 190.128 84.54 190.716 85.812C191.112 86.688 191.556 87.588 191.916 88.524C192.792 90.708 193.572 92.904 194.28 95.148C194.508 95.892 194.688 96.684 194.904 97.428C196.121 101.698 196.984 106.06 197.484 110.472C197.568 111.264 197.688 112.104 197.748 112.884C197.988 115.464 198.144 118.068 198.144 120.684C198.129 125.796 197.659 130.896 196.74 135.924C196.572 136.8 196.428 137.688 196.26 138.528C195.78 140.808 195.228 143.04 194.58 145.248C188.472 142.452 181.296 138.336 179.424 133.812C176.016 125.652 166.944 121.572 163.248 111.06C157.164 93.66 165.24 94.116 166.368 83.316C166.896 78.252 163.248 77.196 158.436 79.26C147.204 83.976 143.4 82.164 141.132 73.704C138.864 65.268 141.132 62.916 141.132 62.916C133.476 63.756 133.188 54.432 137.16 52.08C139.92 50.496 142.26 45.636 144.576 41.856V41.856ZM112.488 93.564C119.568 90.324 126.108 89.16 125.244 83.592C124.404 78.084 122.412 73.98 111.348 73.98C100.284 73.98 105.108 89.16 96.036 80.1C86.964 71.1 98.016 73.428 102.552 71.376C107.1 69.312 111.636 60.852 103.692 60.252C95.76 59.688 97.452 63.756 91.212 61.452C84.972 59.1 82.14 69.6 78.156 68.136C75.54 67.152 68.52 61.752 63.864 56.436C54.3632 64.6996 46.8418 74.9934 41.856 86.556C43.212 102.24 51.504 110.472 51.504 110.472C51.504 110.472 55.764 120.684 81.3 133.236C81.3 133.236 86.1 133.524 80.436 127.704C74.772 121.86 68.52 114.564 75.612 110.784C82.692 106.956 84.696 107.28 86.4 114.3C88.092 121.308 93.78 117.18 94.332 110.472C94.908 103.788 105.396 96.792 112.488 93.552V93.564ZM107.088 128.844C119.304 128.844 118.164 132.648 127.812 141.144C137.448 149.592 132.348 158.052 127.512 164.484C122.7 170.892 118.44 178.164 116.172 191.34C113.892 204.468 107.94 195.108 105.972 191.904C103.98 188.676 100.86 185.772 101.724 172.344C102.564 158.928 93.48 166.824 90.372 149.304C87.252 131.808 94.908 128.856 107.1 128.856L107.088 128.844ZM166.812 140.412C170.064 138.336 177.852 143.748 176.172 149.448C174.456 155.148 169.08 151.932 166.38 149.448C163.68 146.976 163.536 142.452 166.812 140.412V140.412Z" fill="#F7E1C9"/>
</svg>
