<svg version="1.1" id="Layer_1" xmlns="http://www.w3.org/2000/svg" x="0" y="0" viewBox="0 0 180 115.2" style="enable-background:new 0 0 180 115.2" xml:space="preserve"><style>.st6,.st8{enable-background:new}.st6{opacity:.4;fill-rule:evenodd;clip-rule:evenodd;fill:#7e4279}.st8{opacity:.2;fill:#d579a1}.st14,.st19,.st8{fill-rule:evenodd;clip-rule:evenodd}.st14{opacity:.8;fill:#e0e7ff;enable-background:new}.st19{fill:#cec2ce}</style><radialGradient id="SVGID_1_" cx="65.907" cy="49.95" r="35.906" gradientTransform="matrix(1 0 0 -1 0 118)" gradientUnits="userSpaceOnUse"><stop offset="0" style="stop-color:#9f9500"/><stop offset="1" style="stop-color:#7f7f00"/></radialGradient><path d="M67.6 115.2c-.3 0-.6-.1-.9-.2-11.8-4-19-76.6-19.7-84.9l1.6-.1c2.1 22.2 9.5 80.5 18.7 83.5.4.1.9.1 1.3-.2 8.2-5.6 13.4-68.6 14.8-92.4l1.6.1c-.2 3.5-4.9 86.5-15.5 93.6-.7.4-1.3.6-1.9.6z" style="fill:url(#SVGID_1_)"/><path style="fill-rule:evenodd;clip-rule:evenodd;fill:#722a62" d="m155.7 20.4-22.9 32.8-1.1 2.5-16 35.2-10 3.1-16.2 7.1H84l-5-2.8-6.3-13.5-7.3-1h-2.6L42.2 73.2l-2.8-2.7L41.3 55 29.8 41.1 19.3 18.3l87.2-2.9 47.3 2.8z"/><linearGradient id="SVGID_2_" gradientUnits="userSpaceOnUse" x1="62.2" y1="47.55" x2="131.7" y2="47.55" gradientTransform="matrix(1 0 0 -1 0 118)"><stop offset="0" style="stop-color:#c77cbd"/><stop offset="1" style="stop-color:#974577"/></linearGradient><path d="M131.7 55.7 115.6 91l-9.9 3-16.3 7.1H84l-5-2.8-6.4-13.5-7.3-1h-2.5l5.5-3.6-1.6-19.9-4.5-9.6s12 15.5 12 16.7v7.2l35.3-13.7 3.2-5-.7-16.1 19.7 15.9z" style="opacity:.5;fill-rule:evenodd;clip-rule:evenodd;fill:url(#SVGID_2_);enable-background:new"/><linearGradient id="SVGID_3_" gradientUnits="userSpaceOnUse" x1="29.756" y1="70.788" x2="62.257" y2="70.788" gradientTransform="matrix(1 0 0 -1 0 118)"><stop offset="0" style="stop-color:#c77cbd"/><stop offset="1" style="stop-color:#974577"/></linearGradient><path d="m41.3 55 1.1-1.8s10.5-3 19.9-2.7l-8.1-10.7S43.4 38.4 29.8 41l11.5 14z" style="opacity:.5;fill-rule:evenodd;clip-rule:evenodd;fill:url(#SVGID_3_);enable-background:new"/><linearGradient id="SVGID_4_" gradientUnits="userSpaceOnUse" x1="62.8" y1="45.25" x2="109.433" y2="45.25" gradientTransform="matrix(1 0 0 -1 0 118)"><stop offset="0" style="stop-color:#c77cbd"/><stop offset="1" style="stop-color:#974577"/></linearGradient><path style="opacity:.5;fill-rule:evenodd;clip-rule:evenodd;fill:url(#SVGID_4_);enable-background:new" d="m72.7 84.8 14.8-3.4 11.2-10.9 10.8-9.8-35.3 13.8-5.8 5.7-5.6 3.6z"/><linearGradient id="SVGID_5_" gradientUnits="userSpaceOnUse" x1="79" y1="47.55" x2="131.7" y2="47.55" gradientTransform="matrix(1 0 0 -1 0 118)"><stop offset="0" style="stop-color:#c77cbd"/><stop offset="1" style="stop-color:#974577"/></linearGradient><path style="opacity:.5;fill-rule:evenodd;clip-rule:evenodd;fill:url(#SVGID_5_);enable-background:new" d="M79 98.3h5.5l14.7-4.5 10.3-10 4.4-20.9-4.4-2.2 3.1-5-.6-15.9 19.7 15.9-16 35.2-10 3.1-16.2 7.1H84z"/><path class="st6" d="M19.3 18.3s10.9 22.6 12.1 22.4c1.2-.2 20.5-2.1 21.7-3.1 1.2-1.1-1.3-20.4-1.3-20.4l-32.5 1.1zM54.6 38.3c-.3.9 2.1 4.2 2.9 4.6.7.4 3.9-3.5 3.9-4.6s-6.3-1.6-6.8 0zM53.1 17.2s.8 17.5 2 18.5 9.4 1.4 16.4-.5S86.6 16 86.6 16l-33.5 1.2zM111.3 55.7c-.4 1-14.5-2.3-19.2-6.9s-9.8-20.4-9.4-22.4 5.6-10.2 5.6-10.2l25.4-.2-2.3 19.9c-.1-.1.4 18.6-.1 19.8zM109.9 58.3c2.1-1.3-23.3-8-30-7.2-6.7.9-5.5 19.9-3.9 21s32-12.7 33.9-13.8z"/><path d="M85.2 48.5c-.7-.5 1.4-2.4 2-2.4s1.8 2.3 1.7 2.7c-.1.4-3.3 0-3.7-.3z" style="opacity:.4;fill-rule:evenodd;clip-rule:evenodd;fill:#ffd8b3;enable-background:new"/><path class="st6" d="M59.3 46.7c-1.2-1.1 3.1-7.9 4.2-8.7 1.1-.8 16.1-4.5 18.2-3.7s5.2 7.5 4.4 8.6c-.7 1.1-13.1 14-14.5 14.5-1.4.4-9.4-8.1-12.3-10.7z"/><path class="st8" d="M53.5 23.4 84.1 21l-3.3 5.3H53.7zM53.1 30.1l-26.5 2.7-3.4-6.5L53 27.8zM53.3 32.8l-25.7 2 .6 1 25.1-1.6z"/><linearGradient id="SVGID_6_" gradientUnits="userSpaceOnUse" x1="94.4" y1="24.214" x2="94.4" y2="36.56" gradientTransform="matrix(1 0 0 -1 0 118)"><stop offset="0" style="stop-color:#c77cbd"/><stop offset="1" style="stop-color:#974577"/></linearGradient><path d="M99.2 93.8 87.5 81.4s8.3 9.6 13.8 10.2l-2.1 2.2z" style="opacity:.5;fill-rule:evenodd;clip-rule:evenodd;fill:url(#SVGID_6_);enable-background:new"/><linearGradient id="SVGID_7_" gradientUnits="userSpaceOnUse" x1="104.8" y1="59.381" x2="104.8" y2="64.437" gradientTransform="matrix(1 0 0 -1 0 118)"><stop offset="0" style="stop-color:#c77cbd"/><stop offset="1" style="stop-color:#974577"/></linearGradient><path d="m110.8 58.6-.9-.4s-2-2.5-12.9-4.7c0 0 10.7 2.9 14.3 2.1l1.3.1-1.8 2.9z" style="opacity:.5;fill-rule:evenodd;clip-rule:evenodd;fill:url(#SVGID_7_);enable-background:new"/><linearGradient id="SVGID_8_" gradientUnits="userSpaceOnUse" x1="85.5" y1="81.6" x2="111.536" y2="81.6" gradientTransform="matrix(1 0 0 -1 0 118)"><stop offset="0" style="stop-color:#c77cbd"/><stop offset="1" style="stop-color:#974577"/></linearGradient><path style="opacity:.2;fill-rule:evenodd;clip-rule:evenodd;fill:url(#SVGID_8_);enable-background:new" d="m85.5 36.6 26-2.4-.1 4.4H86.3z"/><linearGradient id="SVGID_9_" gradientUnits="userSpaceOnUse" x1="20.5" y1="97.6" x2="110.9" y2="97.6" gradientTransform="matrix(1 0 0 -1 0 118)"><stop offset="0" style="stop-color:#c77cbd"/><stop offset="1" style="stop-color:#974577"/></linearGradient><path style="opacity:.5;fill-rule:evenodd;clip-rule:evenodd;fill:url(#SVGID_9_);enable-background:new" d="M22.3 25.7h30.5l1.1 2.1v-2.1l29.6-3 .6.7 25.8 2.9 1-6.1L84.1 13l-63.6 8z"/><linearGradient id="SVGID_10_" gradientUnits="userSpaceOnUse" x1="53.95" y1="34.225" x2="53.95" y2="67.432" gradientTransform="matrix(1 0 0 -1 0 118)"><stop offset="0" style="stop-color:#906361"/><stop offset="1" style="stop-color:#b5888d"/></linearGradient><path d="m41.3 55-1.8 15.5 1.8 2.2 21.6 11 5.5-3.6-1.6-19.9-4.5-9.6s-14.3.1-19.9 2.7L41.3 55z" style="fill-rule:evenodd;clip-rule:evenodd;fill:url(#SVGID_10_)"/><path class="st14" d="M39.4 70.5h7.7l6.3-3.4 9.4-13.6-.6-3s-8.4-.7-19.9 2.7l-1 1.8-1.9 15.5z"/><linearGradient id="SVGID_11_" gradientUnits="userSpaceOnUse" x1="53.471" y1="52.6" x2="68.371" y2="52.6" gradientTransform="matrix(1 0 0 -1 0 118)"><stop offset="0" style="stop-color:#c77cbd"/><stop offset="1" style="stop-color:#974577"/></linearGradient><path style="opacity:.5;fill-rule:evenodd;clip-rule:evenodd;fill:url(#SVGID_11_);enable-background:new" d="m53.5 67.2 14.9 13-1.6-20-4.5-9.6.5 3z"/><path style="fill-rule:evenodd;clip-rule:evenodd;fill:#bcabbc" d="m51.1 68.4 4.7-4.6 2.2 6.7z"/><linearGradient id="SVGID_12_" gradientUnits="userSpaceOnUse" x1="55.769" y1="52.6" x2="74.21" y2="52.6" gradientTransform="matrix(1 0 0 -1 0 118)"><stop offset="0" style="stop-color:#c77cbd"/><stop offset="1" style="stop-color:#974577"/></linearGradient><path style="opacity:.5;fill-rule:evenodd;clip-rule:evenodd;fill:url(#SVGID_12_);enable-background:new" d="m68.4 80.2 5.8-5.7v-7.2L62.3 50.6l.5 3-7 10.2 2.2 6.7z"/><path style="opacity:.2;fill-rule:evenodd;clip-rule:evenodd;fill:#ffddd6;enable-background:new" d="m53.1 78.8-5.9-8.3L54.6 51l-2.4.3L48 64.9l-.8.5 2.2-13.8-1.4.3-4.3 18.6 3.6 5.3z"/><path class="st19" d="m42.2 70.5-2.7-.8-.1.8 1.9 2.2z"/><radialGradient id="SVGID_13_" cx="89.95" cy="97.814" r="64.298" gradientTransform="matrix(1 0 0 -1 0 118)" gradientUnits="userSpaceOnUse"><stop offset="0" style="stop-color:#9f9500"/><stop offset="1" style="stop-color:#7f7f00"/></radialGradient><path d="M19.3 11.3s-7.1-4.1-8.8-3.7C8.8 8 .9 12.2 0 15.4l7.2-1.5s-8.1 8.7-3.7 18.9l13.5-16s.2 3.6 2.3 4.1c2.9.8 22.9-2.7 22.9-2.7s3.2 5.5 6.9 6.5 32.4-6.5 35-7.6c2.5-1.2 12.9 0 12.9 0s5.7 2.5 10.3 3.7c4.6 1.2 29.8-2.8 29.8-2.8s30.8 11.1 31.5 10.8c.8-.3-1.6-10.1-7.8-12.9l19.1 2.1s-14.6-7.6-16.6-8c-2-.5-8.8 1.8-8.8 1.8l-135.2-.5z" style="fill-rule:evenodd;clip-rule:evenodd;fill:url(#SVGID_13_)"/><path style="opacity:.8;fill-rule:evenodd;clip-rule:evenodd;fill:#ffff70;enable-background:new" d="M19.3 11.3h-3.6l68.4 5.9 72.4-1.1 3.2-3.1-5.1-1z"/><radialGradient id="SVGID_14_" cx="19.004" cy="99.398" r="7.388" gradientTransform="matrix(1 0 0 -1 0 118)" gradientUnits="userSpaceOnUse"><stop offset="0" style="stop-color:#dbc000"/><stop offset="1" style="stop-color:#b5a700"/></radialGradient><path d="M19.3 11.3s-3.5-.9-4.6 0-3.3 15.3-2.7 15 14-15 14-15h-6.7z" style="fill-rule:evenodd;clip-rule:evenodd;fill:url(#SVGID_14_)"/><radialGradient id="SVGID_15_" cx="80.492" cy="106.694" r="12.779" gradientTransform="matrix(1 0 0 -1 0 118)" gradientUnits="userSpaceOnUse"><stop offset="0" style="stop-color:#dbc000"/><stop offset="1" style="stop-color:#b5a700"/></radialGradient><path d="M74.7 11.6s-1.9 6.6 2.8 9.4c4.8 2.8 19.4-9.4 19.4-9.4H74.7z" style="fill-rule:evenodd;clip-rule:evenodd;fill:url(#SVGID_15_)"/><g><linearGradient id="SVGID_16_" gradientUnits="userSpaceOnUse" x1="137.2" y1="62.3" x2="137.2" y2="118" gradientTransform="matrix(1 0 0 -1 0 118)"><stop offset="0" style="stop-color:#906361"/><stop offset="1" style="stop-color:#b5888d"/></linearGradient><path d="m114 52.5-4.5-28.7 2.3-5.6L122 5.8S146.4 0 163.4 0l1.5 3.5-8.4 38.4-24.8 13.8-15.6-1.3-2.1-1.9z" style="fill-rule:evenodd;clip-rule:evenodd;fill:url(#SVGID_16_)"/><path class="st14" d="M121.9 5.8s3.7 24 3.5 27c-.3 3-11.4 19.7-11.4 19.7l-4.5-28.7 2.3-5.6 10.1-12.4zM121.9 5.8l9.8 1.5s15.8.5 21.1 0 10.5-7.4 10.5-7.4-18.8 0-41.4 5.9z"/><linearGradient id="SVGID_17_" gradientUnits="userSpaceOnUse" x1="158.84" y1="104.95" x2="164.856" y2="104.95" gradientTransform="matrix(1 0 0 -1 0 118)"><stop offset="0" style="stop-color:#c77cbd"/><stop offset="1" style="stop-color:#974577"/></linearGradient><path d="M159.9 26.1s-1.3-18.7-1-20.3c.3-1.5 4.5-5.8 4.5-5.8l1.5 3.5-5 22.6z" style="opacity:.5;fill-rule:evenodd;clip-rule:evenodd;fill:url(#SVGID_17_);enable-background:new"/><path class="st19" d="m125 27.2 6.7 9.4-9.1 4.2.1-2.2z"/><linearGradient id="SVGID_18_" gradientUnits="userSpaceOnUse" x1="114" y1="66.1" x2="156.5" y2="66.1" gradientTransform="matrix(1 0 0 -1 0 118)"><stop offset="0" style="stop-color:#c77cbd"/><stop offset="1" style="stop-color:#974577"/></linearGradient><path style="opacity:.5;fill-rule:evenodd;clip-rule:evenodd;fill:url(#SVGID_18_);enable-background:new" d="m126.5 67.2-10.4-12.9-2.1-1.8 8.6-11.7 9.1-4.2 24.8 5.3-24.8 13.8z"/><path style="opacity:.2;fill-rule:evenodd;clip-rule:evenodd;fill:#ff9c8d;enable-background:new" d="m110.5 30.1 12.7-16.2 36.5 13.3-.9 2.9-29.5-11.8V22l29.2 10.8-.7 3L125.4 21l-14.5 11.8z"/><linearGradient id="SVGID_19_" gradientUnits="userSpaceOnUse" x1="114" y1="71.85" x2="156.5" y2="71.85" gradientTransform="matrix(1 0 0 -1 0 118)"><stop offset="0" style="stop-color:#c77cbd"/><stop offset="1" style="stop-color:#974577"/></linearGradient><path style="opacity:.5;fill-rule:evenodd;clip-rule:evenodd;fill:url(#SVGID_19_);enable-background:new" d="m131.7 55.7-15.6-1.4-2.1-1.8 8.6-11.7 9.1-4.2 24.8 5.3z"/><path class="st19" d="m121.9 5.8 1.3 8.1 2.6-7.5-.4-1.3z"/></g></svg>