<?xml version="1.0" encoding="utf-8"?>
<!-- Generator: Adobe Illustrator 25.0.0, SVG Export Plug-In . SVG Version: 6.00 Build 0)  -->
<svg version="1.1" id="Layer_1" xmlns="http://www.w3.org/2000/svg" xmlns:xlink="http://www.w3.org/1999/xlink" x="0px" y="0px"
	 viewBox="0 0 180 115.2" style="enable-background:new 0 0 180 115.2;" xml:space="preserve">
<style type="text/css">
	.st0{fill:url(#SVGID_1_);}
	.st1{fill-rule:evenodd;clip-rule:evenodd;fill:#722A62;}
	.st2{opacity:0.5;fill-rule:evenodd;clip-rule:evenodd;fill:url(#SVGID_2_);enable-background:new    ;}
	.st3{opacity:0.5;fill-rule:evenodd;clip-rule:evenodd;fill:url(#SVGID_3_);enable-background:new    ;}
	.st4{opacity:0.5;fill-rule:evenodd;clip-rule:evenodd;fill:url(#SVGID_4_);enable-background:new    ;}
	.st5{opacity:0.5;fill-rule:evenodd;clip-rule:evenodd;fill:url(#SVGID_5_);enable-background:new    ;}
	.st6{opacity:0.4;fill-rule:evenodd;clip-rule:evenodd;fill:#7E4279;enable-background:new    ;}
	.st7{opacity:0.4;fill-rule:evenodd;clip-rule:evenodd;fill:#FFD8B3;enable-background:new    ;}
	.st8{opacity:0.2;fill-rule:evenodd;clip-rule:evenodd;fill:#D579A1;enable-background:new    ;}
	.st9{opacity:0.5;fill-rule:evenodd;clip-rule:evenodd;fill:url(#SVGID_6_);enable-background:new    ;}
	.st10{opacity:0.5;fill-rule:evenodd;clip-rule:evenodd;fill:url(#SVGID_7_);enable-background:new    ;}
	.st11{opacity:0.2;fill-rule:evenodd;clip-rule:evenodd;fill:url(#SVGID_8_);enable-background:new    ;}
	.st12{opacity:0.5;fill-rule:evenodd;clip-rule:evenodd;fill:url(#SVGID_9_);enable-background:new    ;}
	.st13{fill-rule:evenodd;clip-rule:evenodd;fill:url(#SVGID_10_);}
	.st14{opacity:0.8;fill-rule:evenodd;clip-rule:evenodd;fill:#E0E7FF;enable-background:new    ;}
	.st15{opacity:0.5;fill-rule:evenodd;clip-rule:evenodd;fill:url(#SVGID_11_);enable-background:new    ;}
	.st16{fill-rule:evenodd;clip-rule:evenodd;fill:#BCABBC;}
	.st17{opacity:0.5;fill-rule:evenodd;clip-rule:evenodd;fill:url(#SVGID_12_);enable-background:new    ;}
	.st18{opacity:0.2;fill-rule:evenodd;clip-rule:evenodd;fill:#FFDDD6;enable-background:new    ;}
	.st19{fill-rule:evenodd;clip-rule:evenodd;fill:#CEC2CE;}
	.st20{fill-rule:evenodd;clip-rule:evenodd;fill:url(#SVGID_13_);}
	.st21{opacity:0.8;fill-rule:evenodd;clip-rule:evenodd;fill:#FFFF70;enable-background:new    ;}
	.st22{fill-rule:evenodd;clip-rule:evenodd;fill:url(#SVGID_14_);}
	.st23{fill-rule:evenodd;clip-rule:evenodd;fill:url(#SVGID_15_);}
	.st24{fill-rule:evenodd;clip-rule:evenodd;fill:url(#SVGID_16_);}
	.st25{opacity:0.5;fill-rule:evenodd;clip-rule:evenodd;fill:url(#SVGID_17_);enable-background:new    ;}
	.st26{opacity:0.5;fill-rule:evenodd;clip-rule:evenodd;fill:url(#SVGID_18_);enable-background:new    ;}
	.st27{opacity:0.2;fill-rule:evenodd;clip-rule:evenodd;fill:#FF9C8D;enable-background:new    ;}
	.st28{opacity:0.5;fill-rule:evenodd;clip-rule:evenodd;fill:url(#SVGID_19_);enable-background:new    ;}
</style>
<g>
	<g>
		
			<radialGradient id="SVGID_1_" cx="65.9072" cy="49.95" r="35.9061" gradientTransform="matrix(1 0 0 -1 0 118)" gradientUnits="userSpaceOnUse">
			<stop  offset="0" style="stop-color:#9F9500"/>
			<stop  offset="1" style="stop-color:#7F7F00"/>
		</radialGradient>
		<path class="st0" d="M67.6,115.2c-0.3,0-0.6-0.1-0.9-0.2c-11.8-4-19-76.6-19.7-84.9l1.6-0.1c2.1,22.2,9.5,80.5,18.7,83.5
			c0.4,0.1,0.9,0.1,1.3-0.2c8.2-5.6,13.4-68.6,14.8-92.4L85,21c-0.2,3.5-4.9,86.5-15.5,93.6C68.8,115,68.2,115.2,67.6,115.2z"/>
	</g>
	<polygon class="st1" points="155.7,20.4 132.8,53.2 131.7,55.7 115.7,90.9 105.7,94 89.5,101.1 84,101.1 79,98.3 72.7,84.8 
		65.4,83.8 62.8,83.8 42.2,73.2 39.4,70.5 41.3,55 29.8,41.1 19.3,18.3 106.5,15.4 153.8,18.2 	"/>
	
		<linearGradient id="SVGID_2_" gradientUnits="userSpaceOnUse" x1="62.2" y1="47.55" x2="131.7" y2="47.55" gradientTransform="matrix(1 0 0 -1 0 118)">
		<stop  offset="0" style="stop-color:#C77CBD"/>
		<stop  offset="1" style="stop-color:#974577"/>
	</linearGradient>
	<path class="st2" d="M131.7,55.7L115.6,91l-9.9,3l-16.3,7.1H84l-5-2.8l-6.4-13.5l-7.3-1h-2.5l5.5-3.6l-1.6-19.9l-4.5-9.6
		c0,0,12,15.5,12,16.7c0,1.2,0,7.2,0,7.2l35.3-13.7l3.2-5L112,39.8L131.7,55.7z"/>
	
		<linearGradient id="SVGID_3_" gradientUnits="userSpaceOnUse" x1="29.7565" y1="70.7882" x2="62.2565" y2="70.7882" gradientTransform="matrix(1 0 0 -1 0 118)">
		<stop  offset="0" style="stop-color:#C77CBD"/>
		<stop  offset="1" style="stop-color:#974577"/>
	</linearGradient>
	<path class="st3" d="M41.3,55l1.1-1.8c0,0,10.5-3,19.9-2.7l-8.1-10.7c0,0-10.8-1.4-24.4,1.2L41.3,55z"/>
	
		<linearGradient id="SVGID_4_" gradientUnits="userSpaceOnUse" x1="62.8" y1="45.25" x2="109.4326" y2="45.25" gradientTransform="matrix(1 0 0 -1 0 118)">
		<stop  offset="0" style="stop-color:#C77CBD"/>
		<stop  offset="1" style="stop-color:#974577"/>
	</linearGradient>
	<polygon class="st4" points="72.7,84.8 87.5,81.4 98.7,70.5 109.5,60.7 74.2,74.5 68.4,80.2 62.8,83.8 	"/>
	
		<linearGradient id="SVGID_5_" gradientUnits="userSpaceOnUse" x1="79" y1="47.55" x2="131.7" y2="47.55" gradientTransform="matrix(1 0 0 -1 0 118)">
		<stop  offset="0" style="stop-color:#C77CBD"/>
		<stop  offset="1" style="stop-color:#974577"/>
	</linearGradient>
	<polygon class="st5" points="79,98.3 84.5,98.3 99.2,93.8 109.5,83.8 113.9,62.9 109.5,60.7 112.6,55.7 112,39.8 131.7,55.7 
		115.7,90.9 105.7,94 89.5,101.1 84,101.1 	"/>
	<path class="st6" d="M19.3,18.3c0,0,10.9,22.6,12.1,22.4c1.2-0.2,20.5-2.1,21.7-3.1c1.2-1.1-1.3-20.4-1.3-20.4L19.3,18.3z"/>
	<path class="st6" d="M54.6,38.3c-0.3,0.9,2.1,4.2,2.9,4.6c0.7,0.4,3.9-3.5,3.9-4.6S55.1,36.7,54.6,38.3z"/>
	<path class="st6" d="M53.1,17.2c0,0,0.8,17.5,2,18.5s9.4,1.4,16.4-0.5S86.6,16,86.6,16L53.1,17.2z"/>
	<path class="st6" d="M111.3,55.7c-0.4,1-14.5-2.3-19.2-6.9s-9.8-20.4-9.4-22.4s5.6-10.2,5.6-10.2l25.4-0.2l-2.3,19.9
		C111.3,35.8,111.8,54.5,111.3,55.7z"/>
	<path class="st6" d="M109.9,58.3c2.1-1.3-23.3-8-30-7.2C73.2,52,74.4,71,76,72.1S108,59.4,109.9,58.3z"/>
	<path class="st7" d="M85.2,48.5c-0.7-0.5,1.4-2.4,2-2.4s1.8,2.3,1.7,2.7C88.8,49.2,85.6,48.8,85.2,48.5z"/>
	<path class="st6" d="M59.3,46.7c-1.2-1.1,3.1-7.9,4.2-8.7c1.1-0.8,16.1-4.5,18.2-3.7s5.2,7.5,4.4,8.6C85.4,44,73,56.9,71.6,57.4
		C70.2,57.8,62.2,49.3,59.3,46.7z"/>
	<polygon class="st8" points="53.5,23.4 84.1,21 80.8,26.3 53.7,26.3 	"/>
	<polygon class="st8" points="53.1,30.1 26.6,32.8 23.2,26.3 53,27.8 	"/>
	<polygon class="st8" points="53.3,32.8 27.6,34.8 28.2,35.8 53.3,34.2 	"/>
	
		<linearGradient id="SVGID_6_" gradientUnits="userSpaceOnUse" x1="94.4" y1="24.214" x2="94.4" y2="36.5603" gradientTransform="matrix(1 0 0 -1 0 118)">
		<stop  offset="0" style="stop-color:#C77CBD"/>
		<stop  offset="1" style="stop-color:#974577"/>
	</linearGradient>
	<path class="st9" d="M99.2,93.8L87.5,81.4c0,0,8.3,9.6,13.8,10.2L99.2,93.8z"/>
	
		<linearGradient id="SVGID_7_" gradientUnits="userSpaceOnUse" x1="104.8" y1="59.3813" x2="104.8" y2="64.4368" gradientTransform="matrix(1 0 0 -1 0 118)">
		<stop  offset="0" style="stop-color:#C77CBD"/>
		<stop  offset="1" style="stop-color:#974577"/>
	</linearGradient>
	<path class="st10" d="M110.8,58.6l-0.9-0.4c0,0-2-2.5-12.9-4.7c0,0,10.7,2.9,14.3,2.1l1.3,0.1L110.8,58.6z"/>
	
		<linearGradient id="SVGID_8_" gradientUnits="userSpaceOnUse" x1="85.5" y1="81.6" x2="111.5357" y2="81.6" gradientTransform="matrix(1 0 0 -1 0 118)">
		<stop  offset="0" style="stop-color:#C77CBD"/>
		<stop  offset="1" style="stop-color:#974577"/>
	</linearGradient>
	<polygon class="st11" points="85.5,36.6 111.5,34.2 111.4,38.6 86.3,38.6 	"/>
	
		<linearGradient id="SVGID_9_" gradientUnits="userSpaceOnUse" x1="20.5" y1="97.6" x2="110.9" y2="97.6" gradientTransform="matrix(1 0 0 -1 0 118)">
		<stop  offset="0" style="stop-color:#C77CBD"/>
		<stop  offset="1" style="stop-color:#974577"/>
	</linearGradient>
	<polygon class="st12" points="22.3,25.7 52.8,25.7 53.9,27.8 53.9,25.7 83.5,22.7 84.1,23.4 109.9,26.3 110.9,20.2 84.1,13 
		20.5,21 	"/>
	<g>
		
			<linearGradient id="SVGID_10_" gradientUnits="userSpaceOnUse" x1="53.95" y1="34.225" x2="53.95" y2="67.4317" gradientTransform="matrix(1 0 0 -1 0 118)">
			<stop  offset="0" style="stop-color:#906361"/>
			<stop  offset="1" style="stop-color:#B5888D"/>
		</linearGradient>
		<path class="st13" d="M41.3,55l-1.8,15.5l1.8,2.2l21.6,11l5.5-3.6l-1.6-19.9l-4.5-9.6c0,0-14.3,0.1-19.9,2.7L41.3,55z"/>
		<path class="st14" d="M39.4,70.5h7.7l6.3-3.4l9.4-13.6l-0.6-3c0,0-8.4-0.7-19.9,2.7l-1,1.8L39.4,70.5z"/>
		
			<linearGradient id="SVGID_11_" gradientUnits="userSpaceOnUse" x1="53.4709" y1="52.6" x2="68.3709" y2="52.6" gradientTransform="matrix(1 0 0 -1 0 118)">
			<stop  offset="0" style="stop-color:#C77CBD"/>
			<stop  offset="1" style="stop-color:#974577"/>
		</linearGradient>
		<polygon class="st15" points="53.5,67.2 68.4,80.2 66.8,60.2 62.3,50.6 62.8,53.6 		"/>
		<polygon class="st16" points="51.1,68.4 55.8,63.8 58,70.5 		"/>
		
			<linearGradient id="SVGID_12_" gradientUnits="userSpaceOnUse" x1="55.7688" y1="52.6" x2="74.2105" y2="52.6" gradientTransform="matrix(1 0 0 -1 0 118)">
			<stop  offset="0" style="stop-color:#C77CBD"/>
			<stop  offset="1" style="stop-color:#974577"/>
		</linearGradient>
		<polygon class="st17" points="68.4,80.2 74.2,74.5 74.2,67.3 62.3,50.6 62.8,53.6 55.8,63.8 58,70.5 		"/>
		<polygon class="st18" points="53.1,78.8 47.2,70.5 54.6,51 52.2,51.3 48,64.9 47.2,65.4 49.4,51.6 48,51.9 43.7,70.5 47.3,75.8 		
			"/>
		<polygon class="st19" points="42.2,70.5 39.5,69.7 39.4,70.5 41.3,72.7 		"/>
	</g>
	
		<radialGradient id="SVGID_13_" cx="89.95" cy="97.8137" r="64.2978" gradientTransform="matrix(1 0 0 -1 0 118)" gradientUnits="userSpaceOnUse">
		<stop  offset="0" style="stop-color:#9F9500"/>
		<stop  offset="1" style="stop-color:#7F7F00"/>
	</radialGradient>
	<path class="st20" d="M19.3,11.3c0,0-7.1-4.1-8.8-3.7C8.8,8,0.9,12.2,0,15.4l7.2-1.5c0,0-8.1,8.7-3.7,18.9l13.5-16
		c0,0,0.2,3.6,2.3,4.1c2.9,0.8,22.9-2.7,22.9-2.7s3.2,5.5,6.9,6.5s32.4-6.5,35-7.6c2.5-1.2,12.9,0,12.9,0s5.7,2.5,10.3,3.7
		c4.6,1.2,29.8-2.8,29.8-2.8s30.8,11.1,31.5,10.8c0.8-0.3-1.6-10.1-7.8-12.9l19.1,2.1c0,0-14.6-7.6-16.6-8c-2-0.5-8.8,1.8-8.8,1.8
		L19.3,11.3z"/>
	<polygon class="st21" points="19.3,11.3 15.7,11.3 84.1,17.2 156.5,16.1 159.7,13 154.6,12 	"/>
	
		<radialGradient id="SVGID_14_" cx="19.0036" cy="99.3977" r="7.3876" gradientTransform="matrix(1 0 0 -1 0 118)" gradientUnits="userSpaceOnUse">
		<stop  offset="0" style="stop-color:#DBC000"/>
		<stop  offset="1" style="stop-color:#B5A700"/>
	</radialGradient>
	<path class="st22" d="M19.3,11.3c0,0-3.5-0.9-4.6,0s-3.3,15.3-2.7,15s14-15,14-15L19.3,11.3z"/>
	
		<radialGradient id="SVGID_15_" cx="80.4922" cy="106.6937" r="12.7787" gradientTransform="matrix(1 0 0 -1 0 118)" gradientUnits="userSpaceOnUse">
		<stop  offset="0" style="stop-color:#DBC000"/>
		<stop  offset="1" style="stop-color:#B5A700"/>
	</radialGradient>
	<path class="st23" d="M74.7,11.6c0,0-1.9,6.6,2.8,9.4c4.8,2.8,19.4-9.4,19.4-9.4H74.7z"/>
	<g>
		
			<linearGradient id="SVGID_16_" gradientUnits="userSpaceOnUse" x1="137.2" y1="62.3" x2="137.2" y2="118" gradientTransform="matrix(1 0 0 -1 0 118)">
			<stop  offset="0" style="stop-color:#906361"/>
			<stop  offset="1" style="stop-color:#B5888D"/>
		</linearGradient>
		<path class="st24" d="M114,52.5l-4.5-28.7l2.3-5.6L122,5.8c0,0,24.4-5.8,41.4-5.8l1.5,3.5l-8.4,38.4l-24.8,13.8l-15.6-1.3
			L114,52.5z"/>
		<path class="st14" d="M121.9,5.8c0,0,3.7,24,3.5,27c-0.3,3-11.4,19.7-11.4,19.7l-4.5-28.7l2.3-5.6L121.9,5.8z"/>
		<path class="st14" d="M121.9,5.8l9.8,1.5c0,0,15.8,0.5,21.1,0s10.5-7.4,10.5-7.4S144.5-0.1,121.9,5.8z"/>
		
			<linearGradient id="SVGID_17_" gradientUnits="userSpaceOnUse" x1="158.8405" y1="104.95" x2="164.8561" y2="104.95" gradientTransform="matrix(1 0 0 -1 0 118)">
			<stop  offset="0" style="stop-color:#C77CBD"/>
			<stop  offset="1" style="stop-color:#974577"/>
		</linearGradient>
		<path class="st25" d="M159.9,26.1c0,0-1.3-18.7-1-20.3c0.3-1.5,4.5-5.8,4.5-5.8l1.5,3.5L159.9,26.1z"/>
		<polygon class="st19" points="125,27.2 131.7,36.6 122.6,40.8 122.7,38.6 		"/>
		
			<linearGradient id="SVGID_18_" gradientUnits="userSpaceOnUse" x1="114" y1="66.1" x2="156.5" y2="66.1" gradientTransform="matrix(1 0 0 -1 0 118)">
			<stop  offset="0" style="stop-color:#C77CBD"/>
			<stop  offset="1" style="stop-color:#974577"/>
		</linearGradient>
		<polygon class="st26" points="126.5,67.2 116.1,54.3 114,52.5 122.6,40.8 131.7,36.6 156.5,41.9 131.7,55.7 		"/>
		<polygon class="st27" points="110.5,30.1 123.2,13.9 159.7,27.2 158.8,30.1 129.3,18.3 129.3,22 158.5,32.8 157.8,35.8 125.4,21 
			110.9,32.8 		"/>
		
			<linearGradient id="SVGID_19_" gradientUnits="userSpaceOnUse" x1="114" y1="71.85" x2="156.5" y2="71.85" gradientTransform="matrix(1 0 0 -1 0 118)">
			<stop  offset="0" style="stop-color:#C77CBD"/>
			<stop  offset="1" style="stop-color:#974577"/>
		</linearGradient>
		<polygon class="st28" points="131.7,55.7 116.1,54.3 114,52.5 122.6,40.8 131.7,36.6 156.5,41.9 		"/>
		<polygon class="st19" points="121.9,5.8 123.2,13.9 125.8,6.4 125.4,5.1 		"/>
	</g>
</g>
</svg>
