<?xml version="1.0" encoding="utf-8"?>
<!-- Generator: Adobe Illustrator 25.0.0, SVG Export Plug-In . SVG Version: 6.00 Build 0)  -->
<svg version="1.1" id="Layer_1" xmlns="http://www.w3.org/2000/svg" xmlns:xlink="http://www.w3.org/1999/xlink" x="0px" y="0px"
	 viewBox="0 0 160 85.4" style="enable-background:new 0 0 160 85.4;" xml:space="preserve">
<style type="text/css">
	.st0{fill-rule:evenodd;clip-rule:evenodd;fill:url(#SVGID_1_);}
	.st1{opacity:0.5;fill-rule:evenodd;clip-rule:evenodd;fill:url(#SVGID_2_);enable-background:new    ;}
	.st2{fill-rule:evenodd;clip-rule:evenodd;fill:url(#SVGID_3_);}
	.st3{opacity:0.5;fill-rule:evenodd;clip-rule:evenodd;fill:url(#SVGID_4_);enable-background:new    ;}
	.st4{fill:url(#SVGID_5_);}
	.st5{fill:url(#SVGID_6_);}
	.st6{fill-rule:evenodd;clip-rule:evenodd;fill:url(#SVGID_7_);}
	.st7{fill-rule:evenodd;clip-rule:evenodd;fill:#722A62;}
	.st8{opacity:0.5;fill-rule:evenodd;clip-rule:evenodd;fill:url(#SVGID_8_);enable-background:new    ;}
	.st9{opacity:0.4;fill-rule:evenodd;clip-rule:evenodd;fill:#FFD8B3;enable-background:new    ;}
	.st10{opacity:0.4;fill-rule:evenodd;clip-rule:evenodd;fill:#7E4279;enable-background:new    ;}
	.st11{opacity:0.8;fill-rule:evenodd;clip-rule:evenodd;fill:url(#SVGID_9_);enable-background:new    ;}
	.st12{opacity:0.5;fill-rule:evenodd;clip-rule:evenodd;fill:url(#SVGID_10_);enable-background:new    ;}
	.st13{opacity:0.5;fill-rule:evenodd;clip-rule:evenodd;fill:url(#SVGID_11_);enable-background:new    ;}
	.st14{opacity:0.5;fill-rule:evenodd;clip-rule:evenodd;fill:url(#SVGID_12_);enable-background:new    ;}
	.st15{opacity:0.2;fill-rule:evenodd;clip-rule:evenodd;fill:url(#SVGID_13_);enable-background:new    ;}
	.st16{opacity:0.2;fill-rule:evenodd;clip-rule:evenodd;fill:#D579A1;enable-background:new    ;}
	.st17{opacity:0.2;fill-rule:evenodd;clip-rule:evenodd;fill:url(#SVGID_14_);enable-background:new    ;}
	.st18{fill-rule:evenodd;clip-rule:evenodd;fill:url(#SVGID_15_);}
	.st19{opacity:0.8;fill-rule:evenodd;clip-rule:evenodd;fill:#FFFF70;enable-background:new    ;}
	.st20{fill-rule:evenodd;clip-rule:evenodd;fill:url(#SVGID_16_);}
	.st21{fill-rule:evenodd;clip-rule:evenodd;fill:url(#SVGID_17_);}
	.st22{fill-rule:evenodd;clip-rule:evenodd;fill:url(#SVGID_18_);}
	.st23{opacity:0.8;fill-rule:evenodd;clip-rule:evenodd;fill:#E0E7FF;enable-background:new    ;}
	.st24{opacity:0.5;fill-rule:evenodd;clip-rule:evenodd;fill:url(#SVGID_19_);enable-background:new    ;}
	.st25{fill-rule:evenodd;clip-rule:evenodd;fill:#B4ABB0;}
	.st26{opacity:0.5;fill-rule:evenodd;clip-rule:evenodd;fill:url(#SVGID_20_);enable-background:new    ;}
	.st27{fill-rule:evenodd;clip-rule:evenodd;fill:url(#SVGID_21_);}
	.st28{opacity:0.5;fill-rule:evenodd;clip-rule:evenodd;fill:url(#SVGID_22_);enable-background:new    ;}
	.st29{opacity:0.5;fill-rule:evenodd;clip-rule:evenodd;fill:url(#SVGID_23_);enable-background:new    ;}
	.st30{fill-rule:evenodd;clip-rule:evenodd;fill:url(#SVGID_24_);}
	.st31{opacity:0.5;fill-rule:evenodd;clip-rule:evenodd;fill:url(#SVGID_25_);enable-background:new    ;}
</style>
<g>
	<g>
		
			<radialGradient id="SVGID_1_" cx="-3931.4907" cy="974.3641" r="1.9261" gradientTransform="matrix(-1 0 0 1 -3797.228 -970)" gradientUnits="userSpaceOnUse">
			<stop  offset="0" style="stop-color:#8B8300"/>
			<stop  offset="1" style="stop-color:#6D6400"/>
		</radialGradient>
		<path class="st0" d="M132.2,6.2c0,0,0.7-2.6,1.4-3.3c0.8-0.6,2.5-0.2,2.7,0c0.2,0.2-3.7,3.3-3.7,3.3H132.2z"/>
		
			<linearGradient id="SVGID_2_" gradientUnits="userSpaceOnUse" x1="-3931.4802" y1="976.1704" x2="-3931.4802" y2="972.8228" gradientTransform="matrix(-1 0 0 1 -3797.228 -970)">
			<stop  offset="0" style="stop-color:#C79774"/>
			<stop  offset="1" style="stop-color:#977277"/>
		</linearGradient>
		<path class="st1" d="M136.3,2.9c0,0-2.4-0.6-4.1,3.3C132.2,6.2,133.5,2.2,136.3,2.9z"/>
		
			<radialGradient id="SVGID_3_" cx="670.6942" cy="378.5235" r="3.4941" gradientTransform="matrix(0.9788 0.2048 -0.2816 1.3455 -417.3731 -647.1218)" gradientUnits="userSpaceOnUse">
			<stop  offset="0" style="stop-color:#DBC000"/>
			<stop  offset="1" style="stop-color:#B5A700"/>
		</radialGradient>
		<path class="st2" d="M130.8,6.3c0,0,0-6,3-6.3c0.4,0-2.3,6.5-2.3,6.5L130.8,6.3z"/>
		
			<linearGradient id="SVGID_4_" gradientUnits="userSpaceOnUse" x1="670.8804" y1="537.7394" x2="670.8804" y2="530.9288" gradientTransform="matrix(0.9788 0.2048 -0.2048 0.9788 -414.815 -657.2165)">
			<stop  offset="0" style="stop-color:#C79774"/>
			<stop  offset="1" style="stop-color:#977277"/>
		</linearGradient>
		<path class="st3" d="M131.1,6.4c0,0,0.4-4.9,2.8-6.4c0,0-2.1,1-2.6,6.4L131.1,6.4z"/>
	</g>
	<g>
		
			<radialGradient id="SVGID_5_" cx="63.95" cy="1034.3944" r="26.626" gradientTransform="matrix(1 0 0 1 0 -970)" gradientUnits="userSpaceOnUse">
			<stop  offset="0" style="stop-color:#9F9500"/>
			<stop  offset="1" style="stop-color:#7F7F00"/>
		</radialGradient>
		<path class="st4" d="M61.6,84.8c-0.5,0-1,0-1.4-0.1C41,82.6,32.6,51.2,32.3,49.8l1.4-0.4c0.1,0.3,8.5,31.8,26.6,33.8
			s33.8-38.8,34-39.2l1.3,0.5C95,46.3,80.1,84.8,61.6,84.8z"/>
	</g>
	<g>
		
			<radialGradient id="SVGID_6_" cx="118.8" cy="1026.8368" r="16.8893" gradientTransform="matrix(1 0 0 1 0 -970)" gradientUnits="userSpaceOnUse">
			<stop  offset="0" style="stop-color:#9F9500"/>
			<stop  offset="1" style="stop-color:#7F7F00"/>
		</radialGradient>
		<path class="st5" d="M119.4,75.1L119.4,75.1c-10.1,0-15.8-28.2-16-29.4l1.4-0.3c1.5,7.9,7.1,28.3,14.6,28.3l0,0
			c7.7,0,12.3-25.3,13.4-35l1.4,0.2C133.8,42.5,129.8,75.1,119.4,75.1z"/>
	</g>
	
		<radialGradient id="SVGID_7_" cx="143.0272" cy="991.5044" r="8.5911" gradientTransform="matrix(1 0 0 1 0 -970)" gradientUnits="userSpaceOnUse">
		<stop  offset="0" style="stop-color:#9F9500"/>
		<stop  offset="1" style="stop-color:#7F7F00"/>
	</radialGradient>
	<path class="st6" d="M146.5,12.9c0,0,5.5,6.6,5.2,9.7c-0.4,3-2.6,4-2.6,4v-6.8c0,0-2,9.5-11.8,10.3
		C127.4,30.8,146.5,12.9,146.5,12.9z"/>
	<polygon class="st7" points="147.7,7.2 147.7,11.5 124.2,53.3 122,54.2 100.2,55.9 99.4,58.3 104,66.9 100.4,75.6 85.5,85.4 
		80.5,85.4 62.3,72.2 49.3,67.9 46.9,66 26.3,56.8 24.5,49.7 16.5,40.9 11.3,9.6 	"/>
	
		<linearGradient id="SVGID_8_" gradientUnits="userSpaceOnUse" x1="49.3" y1="1037.1444" x2="124.2" y2="1037.1444" gradientTransform="matrix(1 0 0 1 0 -970)">
		<stop  offset="0" style="stop-color:#C77CBD"/>
		<stop  offset="1" style="stop-color:#974577"/>
	</linearGradient>
	<polygon class="st8" points="100.2,55.9 99.4,58.3 104,66.9 100.4,75.6 85.5,85.4 80.5,85.4 62.3,72.2 49.3,67.9 80.7,58 84,58 
		97.2,51.1 101.4,48.9 116.7,53.3 124.2,53.3 122,54.2 	"/>
	<path class="st9" d="M96.3,48c-0.5-0.7-8.6-0.6-10.2,0s-4.8,7.8-4.8,8.5s3.2,0.2,6.9-1.8c3.7-2,7.3-3.5,8.2-4.3
		C97.2,49.6,96.3,48,96.3,48z"/>
	<path class="st10" d="M87.9,44.9c0.2,0.8,9.1,2.9,9.8,2.5c0.7-0.3,3.6-1,4.4-2s9-25.8,9.3-27.8S86.7,12,84.5,12.4s-3.4,3.8-3.2,5.2
		C81.5,18.9,87.9,44.9,87.9,44.9z"/>
	<path class="st10" d="M85.6,46.3c-0.3,1-5.6,10.4-6.1,10.8C79,57.6,51.2,67.6,49.3,67.9L46.9,66c0,0,0.8-47.4,2.4-49.4
		c1.6-1.9,28.2-5.5,29.3-4.9C79.7,12.3,86.8,42.6,85.6,46.3z"/>
	<path class="st10" d="M16.5,40.9c0,0,16.9,5.6,20.2,5.4s7.9-2.4,9.1-5.9c1.3-3.5,1.8-23.1,1-24.3s-29.3-3.5-34.5,0L16.5,40.9z"/>
	
		<linearGradient id="SVGID_9_" gradientUnits="userSpaceOnUse" x1="16.5375" y1="1015.2944" x2="41.8716" y2="1015.2944" gradientTransform="matrix(1 0 0 1 0 -970)">
		<stop  offset="0" style="stop-color:#C77CBD"/>
		<stop  offset="1" style="stop-color:#974577"/>
	</linearGradient>
	<path class="st11" d="M24.5,49.7l-0.8-3.4l12.8,1.2l5.4,1.4l-5.6-2.6c0,0-11.1-2.5-19.8-5.4L24.5,49.7z"/>
	
		<linearGradient id="SVGID_10_" gradientUnits="userSpaceOnUse" x1="11.8" y1="987.6443" x2="147.8" y2="987.6443" gradientTransform="matrix(1 0 0 1 0 -970)">
		<stop  offset="0" style="stop-color:#C77CBD"/>
		<stop  offset="1" style="stop-color:#974577"/>
	</linearGradient>
	<path class="st12" d="M12.2,14.5l0.3,1.5c0,0,15.7-3.9,34.5,0l1.6,6c0,0,0.2-4.4,0.8-5.5s27.7-5.7,29.3-4.9s4.8,16.7,4.8,16.7
		l0.2-1.3l-2.2-9.5c0,0,0.2-4.6,3.2-5.2c3-0.6,25.5,2.4,26.5,6.5l-2,6.3c0,0,11.5-11.7,31.5-1.2l7.1-12.6V7l-136,3.5L12.2,14.5z"/>
	
		<linearGradient id="SVGID_11_" gradientUnits="userSpaceOnUse" x1="101.8" y1="1055.3944" x2="101.8" y2="996.0944" gradientTransform="matrix(1 0 0 1 0 -970)">
		<stop  offset="0" style="stop-color:#C77CBD"/>
		<stop  offset="1" style="stop-color:#974577"/>
	</linearGradient>
	<path class="st13" d="M116.7,53.3h7.4l-2.2,1L100.1,56l-0.7,2.4L104,67l-3.6,8.6l-14.9,9.8l1.2-0.8c0,0,10.4-6.9,10-11.6
		s-4-10.9-4-10.9H89l-3.3-2.5l-6.2-1.2L84,58l13.2-7l-0.9-3c0,0,4.7-1.8,5.8-2.6c1-0.8,6.7-19.3,6.7-19.3L103.7,47l1,1.9L116.7,53.3
		z"/>
	
		<linearGradient id="SVGID_12_" gradientUnits="userSpaceOnUse" x1="75.15" y1="1044.3447" x2="75.15" y2="1033.0009" gradientTransform="matrix(1 0 0 1 0 -970)">
		<stop  offset="0" style="stop-color:#C77CBD"/>
		<stop  offset="1" style="stop-color:#974577"/>
	</linearGradient>
	<path class="st14" d="M62.3,72.2c0,0,9.2-1.7,25.7-9.2c0,0-19.3,8.1-22.8,11.3L62.3,72.2z"/>
	
		<linearGradient id="SVGID_13_" gradientUnits="userSpaceOnUse" x1="46.9" y1="1010.2944" x2="84.3" y2="1010.2944" gradientTransform="matrix(1 0 0 1 0 -970)">
		<stop  offset="0" style="stop-color:#C77CBD"/>
		<stop  offset="1" style="stop-color:#974577"/>
	</linearGradient>
	<polygon class="st15" points="47.6,40.9 83.4,28.5 84.3,34.7 46.9,52.1 	"/>
	<polygon class="st16" points="47.7,36.5 82.6,26.2 82.6,24.7 47.7,33.3 	"/>
	<polygon class="st16" points="14.2,27 47.2,26.2 46.8,34 15.2,33 	"/>
	
		<linearGradient id="SVGID_14_" gradientUnits="userSpaceOnUse" x1="86.2301" y1="1010.9444" x2="104.379" y2="1010.9444" gradientTransform="matrix(1 0 0 1 0 -970)">
		<stop  offset="0" style="stop-color:#C77CBD"/>
		<stop  offset="1" style="stop-color:#974577"/>
	</linearGradient>
	<polygon class="st17" points="86.2,38.1 104.4,39.8 102.7,43.8 86.9,40.9 	"/>
	<g>
		
			<radialGradient id="SVGID_15_" cx="79.9399" cy="981.7416" r="56.932" gradientTransform="matrix(1 0 0 1 0 -970)" gradientUnits="userSpaceOnUse">
			<stop  offset="0" style="stop-color:#9F9500"/>
			<stop  offset="1" style="stop-color:#7F7F00"/>
		</radialGradient>
		<path class="st18" d="M11.3,7.2c0,0-8.2-6.4-11.3-3c-0.3,0.4,9.4,5,9.4,5s-7.7,8.5-7.7,9.7s14-7.4,20.9-7.4c0,0,1.6,2.2,12.8,2.8
			c11.3,0.6,12.1-3,36.5-4.2s39.9,7.2,42.8,6.8s-3.5-5.4-3.5-5.4s6.2,1.8,15.1,1s7.7-4.1,7.7-4.1l12.1,0.5c0,0,9.4,10.7,10.4,11.3
			c1.1,0.6,2.2-11.8-7-14.3c0,0,9.5,2.3,10.3,1.9c0.8-0.4-4-5.6-12.2-3.4L11.3,7.2z"/>
		<path class="st19" d="M11.3,7.2L11.3,7.2c0,0,19.4,2.9,64,2.9c43,0,72.3-5.5,72.3-5.5L11.3,7.2z"/>
		
			<radialGradient id="SVGID_16_" cx="96.8316" cy="981.8415" r="15.777" gradientTransform="matrix(1 0 0 1 0 -970)" gradientUnits="userSpaceOnUse">
			<stop  offset="0" style="stop-color:#DBC000"/>
			<stop  offset="1" style="stop-color:#B5A700"/>
		</radialGradient>
		<path class="st20" d="M75.3,10.1c0,0,27-8.2,38.4-1.8c7.5,4.2,4.2,9.8,0.9,9.5C111.4,17.6,91.9,8.9,75.3,10.1z"/>
		
			<radialGradient id="SVGID_17_" cx="27.8367" cy="980.1644" r="8.9768" gradientTransform="matrix(1 0 0 1 0 -970)" gradientUnits="userSpaceOnUse">
			<stop  offset="0" style="stop-color:#DBC000"/>
			<stop  offset="1" style="stop-color:#B5A700"/>
		</radialGradient>
		<path class="st21" d="M28.3,8.8c0,0-3.6,5.5-1.7,6.4c1.9,0.9,5.4-5,24-5.5C50.6,9.6,38.4,7.5,28.3,8.8z"/>
	</g>
	<g>
		
			<linearGradient id="SVGID_18_" gradientUnits="userSpaceOnUse" x1="53.8016" y1="1025.7943" x2="53.8016" y2="997.6944" gradientTransform="matrix(1 0 0 1 0 -970)">
			<stop  offset="0" style="stop-color:#906361"/>
			<stop  offset="1" style="stop-color:#B5888D"/>
		</linearGradient>
		<path class="st22" d="M62.7,55.8h-2.4c0,0-11.8-2.8-12.7-3.2c-0.8-0.4-7.4-10.8-7.4-10.8L46,28.5l3.2-0.8l17.5,6.5l0.7,3.3
			C67.5,37.5,65.2,50.4,62.7,55.8z"/>
		<polygon class="st23" points="40.4,41.7 44.6,43.8 52.8,43.8 66.8,34.2 49.3,27.7 46.1,28.5 		"/>
		
			<linearGradient id="SVGID_19_" gradientUnits="userSpaceOnUse" x1="47.7249" y1="1014.9944" x2="67.5249" y2="1014.9944" gradientTransform="matrix(1 0 0 1 0 -970)">
			<stop  offset="0" style="stop-color:#C77CBD"/>
			<stop  offset="1" style="stop-color:#974577"/>
		</linearGradient>
		<path class="st24" d="M47.7,52.5l10.5,1.2l-5.4-9.9l14-9.6l0.7,3.3c0,0-2.3,13.1-4.8,18.3h-2.4L47.7,52.5z"/>
		<polygon class="st25" points="50.1,43.8 54.7,42.5 53.4,45 		"/>
		
			<linearGradient id="SVGID_20_" gradientUnits="userSpaceOnUse" x1="47.7" y1="1015.4944" x2="72.7" y2="1015.4944" gradientTransform="matrix(1 0 0 1 0 -970)">
			<stop  offset="0" style="stop-color:#C77CBD"/>
			<stop  offset="1" style="stop-color:#974577"/>
		</linearGradient>
		<polygon class="st26" points="47.7,52.5 60.8,56.8 67.5,56.8 72.7,49.7 67.5,37.5 66.8,34.2 54.7,42.5 53.4,45 60.4,55.8 		"/>
	</g>
	<g>
		
			<radialGradient id="SVGID_21_" cx="94.3742" cy="995.3014" r="4.2072" gradientTransform="matrix(1 0 0 1 0 -970)" gradientUnits="userSpaceOnUse">
			<stop  offset="0" style="stop-color:#B5888D"/>
			<stop  offset="1" style="stop-color:#906354"/>
		</radialGradient>
		<path class="st27" d="M92.2,26.6l0.5,1.6l4.6,3l1.5-0.8l1.6-3.8c0,0-3.2-3.6-5-4C95.5,22.6,93.5,23.6,92.2,26.6z"/>
		
			<linearGradient id="SVGID_22_" gradientUnits="userSpaceOnUse" x1="92.7768" y1="998.8943" x2="100.4472" y2="998.8943" gradientTransform="matrix(1 0 0 1 0 -970)">
			<stop  offset="0" style="stop-color:#C77CBD"/>
			<stop  offset="1" style="stop-color:#974577"/>
		</linearGradient>
		<polygon class="st28" points="100.4,26.6 96.3,26.6 96.3,29.7 92.8,28.2 97.4,31.2 98.8,30.5 		"/>
		<path class="st23" d="M92.2,26.6H95h5.4c0,0-1.9-2.6-5-4C95.5,22.6,93.8,23.4,92.2,26.6z"/>
		
			<linearGradient id="SVGID_23_" gradientUnits="userSpaceOnUse" x1="92.7768" y1="999.6943" x2="101.4283" y2="999.6943" gradientTransform="matrix(1 0 0 1 0 -970)">
			<stop  offset="0" style="stop-color:#C77CBD"/>
			<stop  offset="1" style="stop-color:#974577"/>
		</linearGradient>
		<polygon class="st29" points="100.4,26.6 101.4,28.9 100.7,32.3 99,32.8 92.8,28.2 96.3,30.6 96.3,29.7 96.3,26.6 98.1,26.6 		"/>
	</g>
	<g>
		
			<linearGradient id="SVGID_24_" gradientUnits="userSpaceOnUse" x1="129.75" y1="1019.5754" x2="129.75" y2="1002.1895" gradientTransform="matrix(1 0 0 1 0 -970)">
			<stop  offset="0" style="stop-color:#906361"/>
			<stop  offset="1" style="stop-color:#B5888D"/>
		</linearGradient>
		<path class="st30" d="M126.2,49.6c0,0-5.1-3.9-5.2-5.3s0.3-7.6,0.9-8.7c0.6-1.1,13.1-3.8,14.1-3.4c0.9,0.4,2.7,8.7,2.5,9.5
			S126.2,49.6,126.2,49.6z"/>
		
			<linearGradient id="SVGID_25_" gradientUnits="userSpaceOnUse" x1="118.3261" y1="1014.4444" x2="138.4937" y2="1014.4444" gradientTransform="matrix(1 0 0 1 0 -970)">
			<stop  offset="0" style="stop-color:#C77CBD"/>
			<stop  offset="1" style="stop-color:#974577"/>
		</linearGradient>
		<polygon class="st31" points="121.9,35.6 133.5,38.7 138.5,41.7 126.2,49.6 124.2,53.3 118.3,45.3 		"/>
	</g>
</g>
</svg>
