<?xml version="1.0" encoding="utf-8"?>
<!-- Generator: Adobe Illustrator 25.0.0, SVG Export Plug-In . SVG Version: 6.00 Build 0)  -->
<svg version="1.1" id="Layer_1" xmlns="http://www.w3.org/2000/svg" xmlns:xlink="http://www.w3.org/1999/xlink" x="0px" y="0px"
	 viewBox="0 0 160 107.4" style="enable-background:new 0 0 160 107.4;" xml:space="preserve">
<style type="text/css">
	.st0{fill-rule:evenodd;clip-rule:evenodd;fill:url(#SVGID_1_);}
	.st1{opacity:0.5;fill-rule:evenodd;clip-rule:evenodd;fill:url(#SVGID_2_);enable-background:new    ;}
	.st2{fill-rule:evenodd;clip-rule:evenodd;fill:url(#SVGID_3_);}
	.st3{opacity:0.5;fill-rule:evenodd;clip-rule:evenodd;fill:url(#SVGID_4_);enable-background:new    ;}
	.st4{fill:url(#SVGID_5_);}
	.st5{fill:url(#SVGID_6_);}
	.st6{fill-rule:evenodd;clip-rule:evenodd;fill:url(#SVGID_7_);}
	.st7{fill-rule:evenodd;clip-rule:evenodd;fill:#722A62;}
	.st8{opacity:0.5;fill-rule:evenodd;clip-rule:evenodd;fill:url(#SVGID_8_);enable-background:new    ;}
	.st9{opacity:0.4;fill-rule:evenodd;clip-rule:evenodd;fill:#FFD8B3;enable-background:new    ;}
	.st10{opacity:0.4;fill-rule:evenodd;clip-rule:evenodd;fill:#7E4279;enable-background:new    ;}
	.st11{opacity:0.8;fill-rule:evenodd;clip-rule:evenodd;fill:url(#SVGID_9_);enable-background:new    ;}
	.st12{opacity:0.5;fill-rule:evenodd;clip-rule:evenodd;fill:url(#SVGID_10_);enable-background:new    ;}
	.st13{opacity:0.5;fill-rule:evenodd;clip-rule:evenodd;fill:url(#SVGID_11_);enable-background:new    ;}
	.st14{opacity:0.5;fill-rule:evenodd;clip-rule:evenodd;fill:url(#SVGID_12_);enable-background:new    ;}
	.st15{opacity:0.2;fill-rule:evenodd;clip-rule:evenodd;fill:url(#SVGID_13_);enable-background:new    ;}
	.st16{opacity:0.2;fill-rule:evenodd;clip-rule:evenodd;fill:#D579A1;enable-background:new    ;}
	.st17{opacity:0.2;fill-rule:evenodd;clip-rule:evenodd;fill:url(#SVGID_14_);enable-background:new    ;}
	.st18{fill-rule:evenodd;clip-rule:evenodd;fill:url(#SVGID_15_);}
	.st19{opacity:0.8;fill-rule:evenodd;clip-rule:evenodd;fill:#FFFF70;enable-background:new    ;}
	.st20{fill-rule:evenodd;clip-rule:evenodd;fill:url(#SVGID_16_);}
	.st21{fill-rule:evenodd;clip-rule:evenodd;fill:url(#SVGID_17_);}
	.st22{fill-rule:evenodd;clip-rule:evenodd;fill:url(#SVGID_18_);}
	.st23{opacity:0.8;fill-rule:evenodd;clip-rule:evenodd;fill:#E0E7FF;enable-background:new    ;}
	.st24{opacity:0.5;fill-rule:evenodd;clip-rule:evenodd;fill:url(#SVGID_19_);enable-background:new    ;}
	.st25{fill-rule:evenodd;clip-rule:evenodd;fill:#B4ABB0;}
	.st26{opacity:0.5;fill-rule:evenodd;clip-rule:evenodd;fill:url(#SVGID_20_);enable-background:new    ;}
	.st27{fill-rule:evenodd;clip-rule:evenodd;fill:url(#SVGID_21_);}
	.st28{opacity:0.5;fill-rule:evenodd;clip-rule:evenodd;fill:url(#SVGID_22_);enable-background:new    ;}
	.st29{opacity:0.5;fill-rule:evenodd;clip-rule:evenodd;fill:url(#SVGID_23_);enable-background:new    ;}
	.st30{fill-rule:evenodd;clip-rule:evenodd;fill:url(#SVGID_24_);}
	.st31{opacity:0.5;fill-rule:evenodd;clip-rule:evenodd;fill:url(#SVGID_25_);enable-background:new    ;}
</style>
<g>
	<g>
		
			<radialGradient id="SVGID_1_" cx="-2185.2241" cy="90.8488" r="8.4528" gradientTransform="matrix(-1 0 0 -1 -2039.228 110)" gradientUnits="userSpaceOnUse">
			<stop  offset="0" style="stop-color:#8B8300"/>
			<stop  offset="1" style="stop-color:#6D6400"/>
		</radialGradient>
		<path class="st0" d="M137.1,27.1c0,0,2.9-11.5,6.2-14.4c3.3-2.8,11-1,11.7,0s-16.1,14.4-16.1,14.4H137.1z"/>
		
			<linearGradient id="SVGID_2_" gradientUnits="userSpaceOnUse" x1="-2185.178" y1="82.9218" x2="-2185.178" y2="97.6129" gradientTransform="matrix(-1 0 0 -1 -2039.228 110)">
			<stop  offset="0" style="stop-color:#C79774"/>
			<stop  offset="1" style="stop-color:#977277"/>
		</linearGradient>
		<path class="st1" d="M154.9,12.7c0,0-10.4-2.5-17.9,14.4C137.1,27.1,142.5,9.8,154.9,12.7z"/>
		
			<radialGradient id="SVGID_3_" cx="590.8232" cy="426.4955" r="15.3341" gradientTransform="matrix(0.9788 0.2048 0.2816 -1.3455 -560.0935 450.8286)" gradientUnits="userSpaceOnUse">
			<stop  offset="0" style="stop-color:#DBC000"/>
			<stop  offset="1" style="stop-color:#B5A700"/>
		</radialGradient>
		<path class="st2" d="M130.8,27.8c0,0-0.1-26.4,13.3-27.8c1.8-0.2-9.9,28.5-9.9,28.5L130.8,27.8z"/>
		
			<linearGradient id="SVGID_4_" gradientUnits="userSpaceOnUse" x1="593.2278" y1="330.5078" x2="593.2278" y2="360.3967" gradientTransform="matrix(0.9788 0.2048 0.2048 -0.9788 -513.5294 230.6168)">
			<stop  offset="0" style="stop-color:#C79774"/>
			<stop  offset="1" style="stop-color:#977277"/>
		</linearGradient>
		<path class="st3" d="M131.9,28c0,0,1.8-21.4,12.3-28c0,0-9.2,4.6-11.2,28.2L131.9,28z"/>
	</g>
	<g>
		
			<radialGradient id="SVGID_5_" cx="63.95" cy="23.6" r="26.626" gradientTransform="matrix(1 0 0 -1 0 110)" gradientUnits="userSpaceOnUse">
			<stop  offset="0" style="stop-color:#9F9500"/>
			<stop  offset="1" style="stop-color:#7F7F00"/>
		</radialGradient>
		<path class="st4" d="M61.6,106.8c-0.5,0-1,0-1.4-0.1C41,104.6,32.6,73.2,32.3,71.8l1.4-0.4c0.1,0.3,8.5,31.8,26.6,33.8
			s33.8-38.8,34-39.2l1.3,0.5C95,68.3,80.1,106.8,61.6,106.8z"/>
	</g>
	<g>
		
			<radialGradient id="SVGID_6_" cx="118.8" cy="31.1576" r="16.8872" gradientTransform="matrix(1 0 0 -1 0 110)" gradientUnits="userSpaceOnUse">
			<stop  offset="0" style="stop-color:#9F9500"/>
			<stop  offset="1" style="stop-color:#7F7F00"/>
		</radialGradient>
		<path class="st5" d="M119.4,97.1L119.4,97.1c-10.1,0-15.8-28.2-16-29.4l1.4-0.3c1.5,7.9,7.1,28.3,14.6,28.3l0,0
			c7.7,0,12.3-25.3,13.4-35l1.4,0.2C133.8,64.5,129.8,97.1,119.4,97.1z"/>
	</g>
	
		<radialGradient id="SVGID_7_" cx="143.0272" cy="66.49" r="8.5911" gradientTransform="matrix(1 0 0 -1 0 110)" gradientUnits="userSpaceOnUse">
		<stop  offset="0" style="stop-color:#9F9500"/>
		<stop  offset="1" style="stop-color:#7F7F00"/>
	</radialGradient>
	<path class="st6" d="M146.5,34.9c0,0,5.5,6.6,5.2,9.7c-0.4,3-2.6,4-2.6,4v-6.8c0,0-2,9.5-11.8,10.3
		C127.4,52.8,146.5,34.9,146.5,34.9z"/>
	<polygon class="st7" points="147.7,29.2 147.7,33.5 124.2,75.3 122,76.2 100.2,77.9 99.4,80.3 104,88.9 100.4,97.6 85.5,107.4 
		80.5,107.4 62.3,94.2 49.3,89.9 46.9,88 26.3,78.8 24.5,71.7 16.5,62.9 11.3,31.6 	"/>
	
		<linearGradient id="SVGID_8_" gradientUnits="userSpaceOnUse" x1="49.3" y1="20.85" x2="124.2" y2="20.85" gradientTransform="matrix(1 0 0 -1 0 110)">
		<stop  offset="0" style="stop-color:#C77CBD"/>
		<stop  offset="1" style="stop-color:#974577"/>
	</linearGradient>
	<polygon class="st8" points="100.2,77.9 99.4,80.3 104,88.9 100.4,97.6 85.5,107.4 80.5,107.4 62.3,94.2 49.3,89.9 80.7,80 84,80 
		97.2,73.1 101.4,70.9 116.7,75.3 124.2,75.3 122,76.2 	"/>
	<path class="st9" d="M96.3,70c-0.5-0.7-8.6-0.6-10.2,0s-4.8,7.8-4.8,8.5s3.2,0.2,6.9-1.8c3.7-2,7.3-3.5,8.2-4.3
		C97.2,71.6,96.3,70,96.3,70z"/>
	<path class="st10" d="M87.9,66.9c0.2,0.8,9.1,2.9,9.8,2.5c0.7-0.3,3.6-1,4.4-2s9-25.8,9.3-27.8S86.7,34,84.5,34.4
		c-2.2,0.4-3.4,3.8-3.2,5.2C81.5,40.9,87.9,66.9,87.9,66.9z"/>
	<path class="st10" d="M85.6,68.3c-0.3,1-5.6,10.4-6.1,10.8C79,79.6,51.2,89.6,49.3,89.9L46.9,88c0,0,0.8-47.4,2.4-49.4
		c1.6-1.9,28.2-5.5,29.3-4.9C79.7,34.3,86.8,64.6,85.6,68.3z"/>
	<path class="st10" d="M16.5,62.9c0,0,16.9,5.6,20.2,5.4s7.9-2.4,9.1-5.9c1.3-3.5,1.8-23.1,1-24.3s-29.3-3.5-34.5,0L16.5,62.9z"/>
	
		<linearGradient id="SVGID_9_" gradientUnits="userSpaceOnUse" x1="16.5375" y1="42.7" x2="41.8716" y2="42.7" gradientTransform="matrix(1 0 0 -1 0 110)">
		<stop  offset="0" style="stop-color:#C77CBD"/>
		<stop  offset="1" style="stop-color:#974577"/>
	</linearGradient>
	<path class="st11" d="M24.5,71.7l-0.8-3.4l12.8,1.2l5.4,1.4l-5.6-2.6c0,0-11.1-2.5-19.8-5.4L24.5,71.7z"/>
	
		<linearGradient id="SVGID_10_" gradientUnits="userSpaceOnUse" x1="11.8" y1="70.35" x2="147.8" y2="70.35" gradientTransform="matrix(1 0 0 -1 0 110)">
		<stop  offset="0" style="stop-color:#C77CBD"/>
		<stop  offset="1" style="stop-color:#974577"/>
	</linearGradient>
	<path class="st12" d="M12.2,36.5l0.3,1.5c0,0,15.7-3.9,34.5,0l1.6,6c0,0,0.2-4.4,0.8-5.5s27.7-5.7,29.3-4.9s4.8,16.7,4.8,16.7
		l0.2-1.3l-2.2-9.5c0,0,0.2-4.6,3.2-5.2c3-0.6,25.5,2.4,26.5,6.5l-2,6.3c0,0,11.5-11.7,31.5-1.2l7.1-12.6V29l-136,3.5L12.2,36.5z"/>
	
		<linearGradient id="SVGID_11_" gradientUnits="userSpaceOnUse" x1="101.8" y1="2.6" x2="101.8" y2="61.9" gradientTransform="matrix(1 0 0 -1 0 110)">
		<stop  offset="0" style="stop-color:#C77CBD"/>
		<stop  offset="1" style="stop-color:#974577"/>
	</linearGradient>
	<path class="st13" d="M116.7,75.3h7.4l-2.2,1L100.1,78l-0.7,2.4L104,89l-3.6,8.6l-14.9,9.8l1.2-0.8c0,0,10.4-6.9,10-11.6
		s-4-10.9-4-10.9H89l-3.3-2.5l-6.2-1.2L84,80l13.2-7l-0.9-3c0,0,4.7-1.8,5.8-2.6c1-0.8,6.7-19.3,6.7-19.3L103.7,69l1,1.9L116.7,75.3
		z"/>
	
		<linearGradient id="SVGID_12_" gradientUnits="userSpaceOnUse" x1="75.15" y1="13.6497" x2="75.15" y2="24.9935" gradientTransform="matrix(1 0 0 -1 0 110)">
		<stop  offset="0" style="stop-color:#C77CBD"/>
		<stop  offset="1" style="stop-color:#974577"/>
	</linearGradient>
	<path class="st14" d="M62.3,94.2c0,0,9.2-1.7,25.7-9.2c0,0-19.3,8.1-22.8,11.3L62.3,94.2z"/>
	
		<linearGradient id="SVGID_13_" gradientUnits="userSpaceOnUse" x1="46.9" y1="47.7" x2="84.3" y2="47.7" gradientTransform="matrix(1 0 0 -1 0 110)">
		<stop  offset="0" style="stop-color:#C77CBD"/>
		<stop  offset="1" style="stop-color:#974577"/>
	</linearGradient>
	<polygon class="st15" points="47.6,62.9 83.4,50.5 84.3,56.7 46.9,74.1 	"/>
	<polygon class="st16" points="47.7,58.5 82.6,48.2 82.6,46.7 47.7,55.3 	"/>
	<polygon class="st16" points="14.2,49 47.2,48.2 46.8,56 15.2,55 	"/>
	
		<linearGradient id="SVGID_14_" gradientUnits="userSpaceOnUse" x1="86.2301" y1="47.05" x2="104.379" y2="47.05" gradientTransform="matrix(1 0 0 -1 0 110)">
		<stop  offset="0" style="stop-color:#C77CBD"/>
		<stop  offset="1" style="stop-color:#974577"/>
	</linearGradient>
	<polygon class="st17" points="86.2,60.1 104.4,61.8 102.7,65.8 86.9,62.9 	"/>
	<g>
		
			<radialGradient id="SVGID_15_" cx="79.9399" cy="76.2527" r="56.932" gradientTransform="matrix(1 0 0 -1 0 110)" gradientUnits="userSpaceOnUse">
			<stop  offset="0" style="stop-color:#9F9500"/>
			<stop  offset="1" style="stop-color:#7F7F00"/>
		</radialGradient>
		<path class="st18" d="M11.3,29.2c0,0-8.2-6.4-11.3-3c-0.3,0.4,9.4,5,9.4,5s-7.7,8.5-7.7,9.7s14-7.4,20.9-7.4c0,0,1.6,2.2,12.8,2.8
			c11.3,0.6,12.1-3,36.5-4.2s39.9,7.2,42.8,6.8s-3.5-5.4-3.5-5.4s6.2,1.8,15.1,1s7.7-4.1,7.7-4.1l12.1,0.5c0,0,9.4,10.7,10.4,11.3
			c1.1,0.6,2.2-11.8-7-14.3c0,0,9.5,2.3,10.3,1.9s-4-5.6-12.2-3.4L11.3,29.2z"/>
		<path class="st19" d="M11.3,29.2L11.3,29.2c0,0,19.4,2.9,64,2.9c43,0,72.3-5.5,72.3-5.5L11.3,29.2z"/>
		
			<radialGradient id="SVGID_16_" cx="96.8316" cy="76.1529" r="15.777" gradientTransform="matrix(1 0 0 -1 0 110)" gradientUnits="userSpaceOnUse">
			<stop  offset="0" style="stop-color:#DBC000"/>
			<stop  offset="1" style="stop-color:#B5A700"/>
		</radialGradient>
		<path class="st20" d="M75.3,32.1c0,0,27-8.2,38.4-1.8c7.5,4.2,4.2,9.8,0.9,9.5C111.4,39.6,91.9,30.9,75.3,32.1z"/>
		
			<radialGradient id="SVGID_17_" cx="27.8367" cy="77.83" r="8.9768" gradientTransform="matrix(1 0 0 -1 0 110)" gradientUnits="userSpaceOnUse">
			<stop  offset="0" style="stop-color:#DBC000"/>
			<stop  offset="1" style="stop-color:#B5A700"/>
		</radialGradient>
		<path class="st21" d="M28.3,30.8c0,0-3.6,5.5-1.7,6.4s5.4-5,24-5.5C50.6,31.6,38.4,29.5,28.3,30.8z"/>
	</g>
	<g>
		
			<linearGradient id="SVGID_18_" gradientUnits="userSpaceOnUse" x1="53.8016" y1="32.2" x2="53.8016" y2="60.3" gradientTransform="matrix(1 0 0 -1 0 110)">
			<stop  offset="0" style="stop-color:#906361"/>
			<stop  offset="1" style="stop-color:#B5888D"/>
		</linearGradient>
		<path class="st22" d="M62.7,77.8h-2.4c0,0-11.8-2.8-12.7-3.2c-0.8-0.4-7.4-10.8-7.4-10.8L46,50.5l3.2-0.8l17.5,6.5l0.7,3.3
			C67.5,59.5,65.2,72.4,62.7,77.8z"/>
		<polygon class="st23" points="40.4,63.7 44.6,65.8 52.8,65.8 66.8,56.2 49.3,49.7 46.1,50.5 		"/>
		
			<linearGradient id="SVGID_19_" gradientUnits="userSpaceOnUse" x1="47.7249" y1="43" x2="67.5249" y2="43" gradientTransform="matrix(1 0 0 -1 0 110)">
			<stop  offset="0" style="stop-color:#C77CBD"/>
			<stop  offset="1" style="stop-color:#974577"/>
		</linearGradient>
		<path class="st24" d="M47.7,74.5l10.5,1.2l-5.4-9.9l14-9.6l0.7,3.3c0,0-2.3,13.1-4.8,18.3h-2.4L47.7,74.5z"/>
		<polygon class="st25" points="50.1,65.8 54.7,64.5 53.4,67 		"/>
		
			<linearGradient id="SVGID_20_" gradientUnits="userSpaceOnUse" x1="47.7" y1="42.5" x2="72.7" y2="42.5" gradientTransform="matrix(1 0 0 -1 0 110)">
			<stop  offset="0" style="stop-color:#C77CBD"/>
			<stop  offset="1" style="stop-color:#974577"/>
		</linearGradient>
		<polygon class="st26" points="47.7,74.5 60.8,78.8 67.5,78.8 72.7,71.7 67.5,59.5 66.8,56.2 54.7,64.5 53.4,67 60.4,77.8 		"/>
	</g>
	<g>
		
			<radialGradient id="SVGID_21_" cx="94.3742" cy="62.693" r="4.2072" gradientTransform="matrix(1 0 0 -1 0 110)" gradientUnits="userSpaceOnUse">
			<stop  offset="0" style="stop-color:#B5888D"/>
			<stop  offset="1" style="stop-color:#906354"/>
		</radialGradient>
		<path class="st27" d="M92.2,48.6l0.5,1.6l4.6,3l1.5-0.8l1.6-3.8c0,0-3.2-3.6-5-4C95.5,44.6,93.5,45.6,92.2,48.6z"/>
		
			<linearGradient id="SVGID_22_" gradientUnits="userSpaceOnUse" x1="92.7768" y1="59.1" x2="100.4472" y2="59.1" gradientTransform="matrix(1 0 0 -1 0 110)">
			<stop  offset="0" style="stop-color:#C77CBD"/>
			<stop  offset="1" style="stop-color:#974577"/>
		</linearGradient>
		<polygon class="st28" points="100.4,48.6 96.3,48.6 96.3,51.7 92.8,50.2 97.4,53.2 98.8,52.5 		"/>
		<path class="st23" d="M92.2,48.6H95h5.4c0,0-1.9-2.6-5-4C95.5,44.6,93.8,45.4,92.2,48.6z"/>
		
			<linearGradient id="SVGID_23_" gradientUnits="userSpaceOnUse" x1="92.7768" y1="58.3" x2="101.4283" y2="58.3" gradientTransform="matrix(1 0 0 -1 0 110)">
			<stop  offset="0" style="stop-color:#C77CBD"/>
			<stop  offset="1" style="stop-color:#974577"/>
		</linearGradient>
		<polygon class="st29" points="100.4,48.6 101.4,50.9 100.7,54.3 99,54.8 92.8,50.2 96.3,52.6 96.3,51.7 96.3,48.6 98.1,48.6 		"/>
	</g>
	<g>
		
			<linearGradient id="SVGID_24_" gradientUnits="userSpaceOnUse" x1="129.75" y1="38.419" x2="129.75" y2="55.8049" gradientTransform="matrix(1 0 0 -1 0 110)">
			<stop  offset="0" style="stop-color:#906361"/>
			<stop  offset="1" style="stop-color:#B5888D"/>
		</linearGradient>
		<path class="st30" d="M126.2,71.6c0,0-5.1-3.9-5.2-5.3s0.3-7.6,0.9-8.7c0.6-1.1,13.1-3.8,14.1-3.4c0.9,0.4,2.7,8.7,2.5,9.5
			S126.2,71.6,126.2,71.6z"/>
		
			<linearGradient id="SVGID_25_" gradientUnits="userSpaceOnUse" x1="118.3261" y1="43.55" x2="138.4937" y2="43.55" gradientTransform="matrix(1 0 0 -1 0 110)">
			<stop  offset="0" style="stop-color:#C77CBD"/>
			<stop  offset="1" style="stop-color:#974577"/>
		</linearGradient>
		<polygon class="st31" points="121.9,57.6 133.5,60.7 138.5,63.7 126.2,71.6 124.2,75.3 118.3,67.3 		"/>
	</g>
</g>
</svg>
