<?xml version="1.0" encoding="utf-8"?>
<!-- Generator: Adobe Illustrator 25.0.0, SVG Export Plug-In . SVG Version: 6.00 Build 0)  -->
<svg version="1.1" id="Layer_1" xmlns="http://www.w3.org/2000/svg" xmlns:xlink="http://www.w3.org/1999/xlink" x="0px" y="0px"
	 viewBox="0 0 160 107.4" style="enable-background:new 0 0 160 107.4;" xml:space="preserve">
<style type="text/css">
	.st0{fill-rule:evenodd;clip-rule:evenodd;fill:url(#SVGID_1_);}
	.st1{opacity:0.5;fill-rule:evenodd;clip-rule:evenodd;fill:url(#SVGID_2_);}
	.st2{fill-rule:evenodd;clip-rule:evenodd;fill:url(#SVGID_3_);}
	.st3{opacity:0.5;fill-rule:evenodd;clip-rule:evenodd;fill:url(#SVGID_4_);}
	.st4{fill:url(#SVGID_5_);}
	.st5{fill:url(#SVGID_6_);}
	.st6{fill-rule:evenodd;clip-rule:evenodd;fill:url(#SVGID_7_);}
	.st7{fill-rule:evenodd;clip-rule:evenodd;fill:url(#SVGID_8_);}
	.st8{opacity:0.5;fill-rule:evenodd;clip-rule:evenodd;fill:url(#SVGID_9_);}
	.st9{opacity:0.4;fill-rule:evenodd;clip-rule:evenodd;fill:#FFD8B3;}
	.st10{opacity:0.4;fill-rule:evenodd;clip-rule:evenodd;fill:#FF5E31;}
	.st11{opacity:0.8;fill-rule:evenodd;clip-rule:evenodd;fill:url(#SVGID_10_);}
	.st12{opacity:0.5;fill-rule:evenodd;clip-rule:evenodd;fill:url(#SVGID_11_);}
	.st13{opacity:0.5;fill-rule:evenodd;clip-rule:evenodd;fill:url(#SVGID_12_);}
	.st14{opacity:0.5;fill-rule:evenodd;clip-rule:evenodd;fill:url(#SVGID_13_);}
	.st15{opacity:0.2;fill-rule:evenodd;clip-rule:evenodd;fill:url(#SVGID_14_);}
	.st16{opacity:0.2;fill-rule:evenodd;clip-rule:evenodd;fill:#FF862F;}
	.st17{opacity:0.2;fill-rule:evenodd;clip-rule:evenodd;fill:url(#SVGID_15_);}
	.st18{fill-rule:evenodd;clip-rule:evenodd;fill:url(#SVGID_16_);}
	.st19{opacity:0.8;fill-rule:evenodd;clip-rule:evenodd;fill:#FFFF70;}
	.st20{fill-rule:evenodd;clip-rule:evenodd;fill:url(#SVGID_17_);}
	.st21{fill-rule:evenodd;clip-rule:evenodd;fill:url(#SVGID_18_);}
	.st22{fill-rule:evenodd;clip-rule:evenodd;fill:url(#SVGID_19_);}
	.st23{opacity:0.8;fill-rule:evenodd;clip-rule:evenodd;fill:#E0E7FF;}
	.st24{opacity:0.5;fill-rule:evenodd;clip-rule:evenodd;fill:url(#SVGID_20_);}
	.st25{fill-rule:evenodd;clip-rule:evenodd;fill:#B4ABB0;}
	.st26{opacity:0.5;fill-rule:evenodd;clip-rule:evenodd;fill:url(#SVGID_21_);}
	.st27{fill-rule:evenodd;clip-rule:evenodd;fill:url(#SVGID_22_);}
	.st28{opacity:0.5;fill-rule:evenodd;clip-rule:evenodd;fill:url(#SVGID_23_);}
	.st29{opacity:0.5;fill-rule:evenodd;clip-rule:evenodd;fill:url(#SVGID_24_);}
	.st30{fill-rule:evenodd;clip-rule:evenodd;fill:url(#SVGID_25_);}
	.st31{opacity:0.5;fill-rule:evenodd;clip-rule:evenodd;fill:url(#SVGID_26_);}
</style>
<g>
	<g>
		
			<radialGradient id="SVGID_1_" cx="-427.224" cy="19.1447" r="8.4498" gradientTransform="matrix(-1 0 0 1 -281.228 0)" gradientUnits="userSpaceOnUse">
			<stop  offset="0" style="stop-color:#8B8300"/>
			<stop  offset="1" style="stop-color:#6D6400"/>
		</radialGradient>
		<path class="st0" d="M137.1,27.1c0,0,2.9-11.5,6.2-14.4c3.3-2.8,11-1,11.7,0c0.7,1-16.1,14.4-16.1,14.4H137.1z"/>
		
			<linearGradient id="SVGID_2_" gradientUnits="userSpaceOnUse" x1="-427.2147" y1="27.0782" x2="-427.2147" y2="12.3871" gradientTransform="matrix(-1 0 0 1 -281.228 0)">
			<stop  offset="0" style="stop-color:#C79774"/>
			<stop  offset="1" style="stop-color:#977277"/>
		</linearGradient>
		<path class="st1" d="M154.9,12.7c0,0-10.4-2.5-17.9,14.4C137.1,27.1,142.5,9.8,154.9,12.7z"/>
		
			<radialGradient id="SVGID_3_" cx="510.1074" cy="-45.8769" r="15.3341" gradientTransform="matrix(0.9788 0.2048 -0.2816 1.3455 -373.9067 -44.7631)" gradientUnits="userSpaceOnUse">
			<stop  offset="0" style="stop-color:#DBC000"/>
			<stop  offset="1" style="stop-color:#B5A700"/>
		</radialGradient>
		<path class="st2" d="M130.8,27.8c0,0-0.1-26.4,13.3-27.8c1.8-0.2-9.9,28.5-9.9,28.5L130.8,27.8z"/>
		
			<linearGradient id="SVGID_4_" gradientUnits="userSpaceOnUse" x1="512.4562" y1="-30.2275" x2="512.4562" y2="-60.1165" gradientTransform="matrix(0.9788 0.2048 -0.2048 0.9788 -373.0386 -46.7884)">
			<stop  offset="0" style="stop-color:#C79774"/>
			<stop  offset="1" style="stop-color:#977277"/>
		</linearGradient>
		<path class="st3" d="M131.9,28c0,0,1.8-21.4,12.3-28c0,0-9.2,4.6-11.2,28.2L131.9,28z"/>
	</g>
	<g>
		<radialGradient id="SVGID_5_" cx="63.9569" cy="86.4055" r="26.6101" gradientUnits="userSpaceOnUse">
			<stop  offset="0" style="stop-color:#9F9500"/>
			<stop  offset="1" style="stop-color:#7F7F00"/>
		</radialGradient>
		<path class="st4" d="M61.6,106.8c-0.5,0-1,0-1.4-0.1C41,104.6,32.6,73.2,32.3,71.8l1.4-0.4c0.1,0.3,8.5,31.8,26.6,33.8
			c18.1,2,33.8-38.8,34-39.2l1.3,0.5C95,68.3,80.1,106.8,61.6,106.8z"/>
	</g>
	<g>
		<radialGradient id="SVGID_6_" cx="118.8023" cy="78.8424" r="16.8861" gradientUnits="userSpaceOnUse">
			<stop  offset="0" style="stop-color:#9F9500"/>
			<stop  offset="1" style="stop-color:#7F7F00"/>
		</radialGradient>
		<path class="st5" d="M119.4,97.1C119.4,97.1,119.4,97.1,119.4,97.1c-10.1,0-15.8-28.2-16-29.4l1.4-0.3c1.5,7.9,7.1,28.3,14.6,28.3
			c0,0,0,0,0,0c7.7,0,12.3-25.3,13.4-35l1.4,0.2C133.8,64.5,129.8,97.1,119.4,97.1z"/>
	</g>
	<radialGradient id="SVGID_7_" cx="143.0272" cy="43.5154" r="8.5938" gradientUnits="userSpaceOnUse">
		<stop  offset="0" style="stop-color:#9F9500"/>
		<stop  offset="1" style="stop-color:#7F7F00"/>
	</radialGradient>
	<path class="st6" d="M146.5,34.9c0,0,5.5,6.6,5.2,9.7c-0.4,3-2.6,4-2.6,4v-6.8c0,0-2,9.5-11.8,10.3
		C127.4,52.8,146.5,34.9,146.5,34.9z"/>
	<linearGradient id="SVGID_8_" gradientUnits="userSpaceOnUse" x1="79.5081" y1="107.3977" x2="79.5081" y2="29.1884">
		<stop  offset="0" style="stop-color:#8F2726"/>
		<stop  offset="1" style="stop-color:#AB401D"/>
	</linearGradient>
	<polygon class="st7" points="147.7,29.2 147.7,33.5 124.2,75.3 122,76.2 100.2,77.9 99.4,80.3 104,88.9 100.4,97.6 85.5,107.4 
		80.5,107.4 62.3,94.2 49.3,89.9 46.9,88 26.3,78.8 24.5,71.7 16.5,62.9 11.3,31.6 	"/>
	<linearGradient id="SVGID_9_" gradientUnits="userSpaceOnUse" x1="49.3087" y1="89.1649" x2="124.1593" y2="89.1649">
		<stop  offset="0" style="stop-color:#C77CBD"/>
		<stop  offset="1" style="stop-color:#974577"/>
	</linearGradient>
	<polygon class="st8" points="100.2,77.9 99.4,80.3 104,88.9 100.4,97.6 85.5,107.4 80.5,107.4 62.3,94.2 49.3,89.9 80.7,80 84,80 
		97.2,73.1 101.4,70.9 116.7,75.3 124.2,75.3 122,76.2 	"/>
	<path class="st9" d="M96.3,70c-0.5-0.7-8.6-0.6-10.2,0c-1.6,0.6-4.8,7.8-4.8,8.5c0,0.7,3.2,0.2,6.9-1.8c3.7-2,7.3-3.5,8.2-4.3
		C97.2,71.6,96.3,70,96.3,70z"/>
	<path class="st10" d="M87.9,66.9c0.2,0.8,9.1,2.9,9.8,2.5c0.7-0.3,3.6-1,4.4-2c0.8-1,9-25.8,9.3-27.8c0.3-2-24.7-5.6-26.9-5.2
		c-2.2,0.4-3.4,3.8-3.2,5.2C81.5,40.9,87.9,66.9,87.9,66.9z"/>
	<path class="st10" d="M85.6,68.3c-0.3,1-5.6,10.4-6.1,10.8C79,79.6,51.2,89.6,49.3,89.9L46.9,88c0,0,0.8-47.4,2.4-49.4
		c1.6-1.9,28.2-5.5,29.3-4.9C79.7,34.3,86.8,64.6,85.6,68.3z"/>
	<path class="st10" d="M16.5,62.9c0,0,16.9,5.6,20.2,5.4c3.3-0.2,7.9-2.4,9.1-5.9c1.3-3.5,1.8-23.1,1-24.3c-0.8-1.2-29.3-3.5-34.5,0
		L16.5,62.9z"/>
	<linearGradient id="SVGID_10_" gradientUnits="userSpaceOnUse" x1="16.5375" y1="67.2806" x2="41.8716" y2="67.2806">
		<stop  offset="0" style="stop-color:#C77CBD"/>
		<stop  offset="1" style="stop-color:#974577"/>
	</linearGradient>
	<path class="st11" d="M24.5,71.7l-0.8-3.4l12.8,1.2l5.4,1.4l-5.6-2.6c0,0-11.1-2.5-19.8-5.4L24.5,71.7z"/>
	<linearGradient id="SVGID_11_" gradientUnits="userSpaceOnUse" x1="11.7634" y1="39.8242" x2="147.6701" y2="39.8242">
		<stop  offset="0" style="stop-color:#C77CBD"/>
		<stop  offset="1" style="stop-color:#974577"/>
	</linearGradient>
	<path class="st12" d="M12.2,36.5l0.3,1.5c0,0,15.7-3.9,34.5,0l1.6,6c0,0,0.2-4.4,0.8-5.5c0.6-1.1,27.7-5.7,29.3-4.9
		c1.6,0.8,4.8,16.7,4.8,16.7l0.2-1.3l-2.2-9.5c0,0,0.2-4.6,3.2-5.2c3-0.6,25.5,2.4,26.5,6.5l-2,6.3c0,0,11.5-11.7,31.5-1.2l7.1-12.6
		v-4.3L11.8,32.5L12.2,36.5z"/>
	<linearGradient id="SVGID_12_" gradientUnits="userSpaceOnUse" x1="101.8337" y1="107.3977" x2="101.8337" y2="48.1563">
		<stop  offset="0" style="stop-color:#C77CBD"/>
		<stop  offset="1" style="stop-color:#974577"/>
	</linearGradient>
	<path class="st13" d="M116.7,75.3h7.4l-2.2,1l-21.8,1.7l-0.7,2.4l4.6,8.6l-3.6,8.6l-14.9,9.8l1.2-0.8c0,0,10.4-6.9,10-11.6
		c-0.4-4.7-4-10.9-4-10.9H89l-3.3-2.5l-6.2-1.2L84,80l13.2-7L96.3,70c0,0,4.7-1.8,5.8-2.6c1-0.8,6.7-19.3,6.7-19.3l-5.1,20.9l1,1.9
		L116.7,75.3z"/>
	<linearGradient id="SVGID_13_" gradientUnits="userSpaceOnUse" x1="75.1386" y1="96.3503" x2="75.1386" y2="85.0065">
		<stop  offset="0" style="stop-color:#C77CBD"/>
		<stop  offset="1" style="stop-color:#974577"/>
	</linearGradient>
	<path class="st14" d="M62.3,94.2c0,0,9.2-1.7,25.7-9.2c0,0-19.3,8.1-22.8,11.3L62.3,94.2z"/>
	<linearGradient id="SVGID_14_" gradientUnits="userSpaceOnUse" x1="46.9097" y1="62.2848" x2="84.345" y2="62.2848">
		<stop  offset="0" style="stop-color:#C77CBD"/>
		<stop  offset="1" style="stop-color:#974577"/>
	</linearGradient>
	<polygon class="st15" points="47.6,62.9 83.4,50.5 84.3,56.7 46.9,74.1 	"/>
	<polygon class="st16" points="47.7,58.5 82.6,48.2 82.6,46.7 47.7,55.3 	"/>
	<polygon class="st16" points="14.2,49 47.2,48.2 46.8,56 15.2,55 	"/>
	<linearGradient id="SVGID_15_" gradientUnits="userSpaceOnUse" x1="86.2301" y1="62.9382" x2="104.379" y2="62.9382">
		<stop  offset="0" style="stop-color:#C77CBD"/>
		<stop  offset="1" style="stop-color:#974577"/>
	</linearGradient>
	<polygon class="st17" points="86.2,60.1 104.4,61.8 102.7,65.8 86.9,62.9 	"/>
	<g>
		<radialGradient id="SVGID_16_" cx="80" cy="33.7473" r="56.8897" gradientUnits="userSpaceOnUse">
			<stop  offset="0" style="stop-color:#9F9500"/>
			<stop  offset="1" style="stop-color:#7F7F00"/>
		</radialGradient>
		<path class="st18" d="M11.3,29.2c0,0-8.2-6.4-11.3-3c-0.3,0.4,9.4,5,9.4,5s-7.7,8.5-7.7,9.7c0,1.2,14-7.4,20.9-7.4
			c0,0,1.6,2.2,12.8,2.8c11.3,0.6,12.1-3,36.5-4.2c24.4-1.2,39.9,7.2,42.8,6.8s-3.5-5.4-3.5-5.4s6.2,1.8,15.1,1
			c8.9-0.8,7.7-4.1,7.7-4.1l12.1,0.5c0,0,9.4,10.7,10.4,11.3c1.1,0.6,2.2-11.8-7-14.3c0,0,9.5,2.3,10.3,1.9c0.8-0.4-4-5.6-12.2-3.4
			L11.3,29.2z"/>
		<path class="st19" d="M11.3,29.2L11.3,29.2c0,0,19.4,2.9,64,2.9c43,0,72.3-5.5,72.3-5.5L11.3,29.2z"/>
		<radialGradient id="SVGID_17_" cx="96.8316" cy="33.8471" r="15.777" gradientUnits="userSpaceOnUse">
			<stop  offset="0" style="stop-color:#DBC000"/>
			<stop  offset="1" style="stop-color:#B5A700"/>
		</radialGradient>
		<path class="st20" d="M75.3,32.1c0,0,27-8.2,38.4-1.8c7.5,4.2,4.2,9.8,0.9,9.5C111.4,39.6,91.9,30.9,75.3,32.1z"/>
		<radialGradient id="SVGID_18_" cx="27.8367" cy="32.17" r="8.9768" gradientUnits="userSpaceOnUse">
			<stop  offset="0" style="stop-color:#DBC000"/>
			<stop  offset="1" style="stop-color:#B5A700"/>
		</radialGradient>
		<path class="st21" d="M28.3,30.8c0,0-3.6,5.5-1.7,6.4c1.9,0.9,5.4-5,24-5.5C50.6,31.6,38.4,29.5,28.3,30.8z"/>
	</g>
	<g>
		<linearGradient id="SVGID_19_" gradientUnits="userSpaceOnUse" x1="53.9569" y1="77.777" x2="53.9569" y2="49.7003">
			<stop  offset="0" style="stop-color:#906361"/>
			<stop  offset="1" style="stop-color:#B5888D"/>
		</linearGradient>
		<path class="st22" d="M62.7,77.8h-2.4c0,0-11.8-2.8-12.7-3.2c-0.8-0.4-7.4-10.8-7.4-10.8l5.8-13.3l3.2-0.8l17.5,6.5l0.7,3.3
			C67.5,59.5,65.2,72.4,62.7,77.8z"/>
		<polygon class="st23" points="40.4,63.7 44.6,65.8 52.8,65.8 66.8,56.2 49.3,49.7 46.1,50.5 		"/>
		<linearGradient id="SVGID_20_" gradientUnits="userSpaceOnUse" x1="47.7249" y1="66.9998" x2="67.5416" y2="66.9998">
			<stop  offset="0" style="stop-color:#C77CBD"/>
			<stop  offset="1" style="stop-color:#974577"/>
		</linearGradient>
		<path class="st24" d="M47.7,74.5l10.5,1.2l-5.4-9.9l14-9.6l0.7,3.3c0,0-2.3,13.1-4.8,18.3h-2.4L47.7,74.5z"/>
		<polygon class="st25" points="50.1,65.8 54.7,64.5 53.4,67 		"/>
		<linearGradient id="SVGID_21_" gradientUnits="userSpaceOnUse" x1="47.7249" y1="67.4898" x2="72.7395" y2="67.4898">
			<stop  offset="0" style="stop-color:#C77CBD"/>
			<stop  offset="1" style="stop-color:#974577"/>
		</linearGradient>
		<polygon class="st26" points="47.7,74.5 60.8,78.8 67.5,78.8 72.7,71.7 67.5,59.5 66.8,56.2 54.7,64.5 53.4,67 60.4,77.8 		"/>
	</g>
	<g>
		<radialGradient id="SVGID_22_" cx="94.3742" cy="47.307" r="4.2072" gradientUnits="userSpaceOnUse">
			<stop  offset="0" style="stop-color:#B5888D"/>
			<stop  offset="1" style="stop-color:#906354"/>
		</radialGradient>
		<path class="st27" d="M92.2,48.6l0.5,1.6l4.6,3l1.5-0.8l1.6-3.8c0,0-3.2-3.6-5-4C95.5,44.6,93.5,45.6,92.2,48.6z"/>
		<linearGradient id="SVGID_23_" gradientUnits="userSpaceOnUse" x1="92.7768" y1="50.9178" x2="100.4472" y2="50.9178">
			<stop  offset="0" style="stop-color:#C77CBD"/>
			<stop  offset="1" style="stop-color:#974577"/>
		</linearGradient>
		<polygon class="st28" points="100.4,48.6 96.3,48.6 96.3,51.7 92.8,50.2 97.4,53.2 98.8,52.5 		"/>
		<path class="st23" d="M92.2,48.6H95h5.4c0,0-1.9-2.6-5-4C95.5,44.6,93.8,45.4,92.2,48.6z"/>
		<linearGradient id="SVGID_24_" gradientUnits="userSpaceOnUse" x1="92.7768" y1="51.6915" x2="101.4283" y2="51.6915">
			<stop  offset="0" style="stop-color:#C77CBD"/>
			<stop  offset="1" style="stop-color:#974577"/>
		</linearGradient>
		<polygon class="st29" points="100.4,48.6 101.4,50.9 100.7,54.3 99,54.8 92.8,50.2 96.3,52.6 96.3,51.7 96.3,48.6 98.1,48.6 		"/>
	</g>
	<g>
		<linearGradient id="SVGID_25_" gradientUnits="userSpaceOnUse" x1="129.7704" y1="71.581" x2="129.7704" y2="54.1951">
			<stop  offset="0" style="stop-color:#906361"/>
			<stop  offset="1" style="stop-color:#B5888D"/>
		</linearGradient>
		<path class="st30" d="M126.2,71.6c0,0-5.1-3.9-5.2-5.3c-0.1-1.4,0.3-7.6,0.9-8.7c0.6-1.1,13.1-3.8,14.1-3.4
			c0.9,0.4,2.7,8.7,2.5,9.5S126.2,71.6,126.2,71.6z"/>
		<linearGradient id="SVGID_26_" gradientUnits="userSpaceOnUse" x1="118.3261" y1="66.4338" x2="138.4937" y2="66.4338">
			<stop  offset="0" style="stop-color:#C77CBD"/>
			<stop  offset="1" style="stop-color:#974577"/>
		</linearGradient>
		<polygon class="st31" points="121.9,57.6 133.5,60.7 138.5,63.7 126.2,71.6 124.2,75.3 118.3,67.3 		"/>
	</g>
</g>
</svg>
