<svg version="1.1" id="Layer_1" xmlns="http://www.w3.org/2000/svg" x="0" y="0" viewBox="0 0 160 85.4" style="enable-background:new 0 0 160 85.4" xml:space="preserve"><style>.st10,.st16,.st23{opacity:.4;fill-rule:evenodd;clip-rule:evenodd;fill:#7e4279;enable-background:new}.st16,.st23{opacity:.2;fill:#d579a1}.st23{opacity:.8;fill:#e0e7ff}</style><radialGradient id="SVGID_1_" cx="-3931.491" cy="974.364" r="1.926" gradientTransform="matrix(-1 0 0 1 -3797.228 -970)" gradientUnits="userSpaceOnUse"><stop offset="0" style="stop-color:#8b8300"/><stop offset="1" style="stop-color:#6d6400"/></radialGradient><path d="M132.2 6.2s.7-2.6 1.4-3.3c.8-.6 2.5-.2 2.7 0 .2.2-3.7 3.3-3.7 3.3h-.4z" style="fill-rule:evenodd;clip-rule:evenodd;fill:url(#SVGID_1_)"/><linearGradient id="SVGID_2_" gradientUnits="userSpaceOnUse" x1="-3931.48" y1="976.17" x2="-3931.48" y2="972.823" gradientTransform="matrix(-1 0 0 1 -3797.228 -970)"><stop offset="0" style="stop-color:#c79774"/><stop offset="1" style="stop-color:#977277"/></linearGradient><path d="M136.3 2.9s-2.4-.6-4.1 3.3c0 0 1.3-4 4.1-3.3z" style="opacity:.5;fill-rule:evenodd;clip-rule:evenodd;fill:url(#SVGID_2_);enable-background:new"/><radialGradient id="SVGID_3_" cx="670.694" cy="378.524" r="3.494" gradientTransform="matrix(.9788 .2048 -.2816 1.3455 -417.373 -647.122)" gradientUnits="userSpaceOnUse"><stop offset="0" style="stop-color:#dbc000"/><stop offset="1" style="stop-color:#b5a700"/></radialGradient><path d="M130.8 6.3s0-6 3-6.3c.4 0-2.3 6.5-2.3 6.5l-.7-.2z" style="fill-rule:evenodd;clip-rule:evenodd;fill:url(#SVGID_3_)"/><linearGradient id="SVGID_4_" gradientUnits="userSpaceOnUse" x1="670.88" y1="537.739" x2="670.88" y2="530.929" gradientTransform="rotate(11.819 2967.599 -2332.657)"><stop offset="0" style="stop-color:#c79774"/><stop offset="1" style="stop-color:#977277"/></linearGradient><path d="M131.1 6.4s.4-4.9 2.8-6.4c0 0-2.1 1-2.6 6.4h-.2z" style="opacity:.5;fill-rule:evenodd;clip-rule:evenodd;fill:url(#SVGID_4_);enable-background:new"/><radialGradient id="SVGID_5_" cx="63.95" cy="1034.394" r="26.626" gradientTransform="translate(0 -970)" gradientUnits="userSpaceOnUse"><stop offset="0" style="stop-color:#9f9500"/><stop offset="1" style="stop-color:#7f7f00"/></radialGradient><path d="M61.6 84.8c-.5 0-1 0-1.4-.1C41 82.6 32.6 51.2 32.3 49.8l1.4-.4c.1.3 8.5 31.8 26.6 33.8s33.8-38.8 34-39.2l1.3.5c-.6 1.8-15.5 40.3-34 40.3z" style="fill:url(#SVGID_5_)"/><radialGradient id="SVGID_6_" cx="118.8" cy="1026.837" r="16.889" gradientTransform="translate(0 -970)" gradientUnits="userSpaceOnUse"><stop offset="0" style="stop-color:#9f9500"/><stop offset="1" style="stop-color:#7f7f00"/></radialGradient><path d="M119.4 75.1c-10.1 0-15.8-28.2-16-29.4l1.4-.3c1.5 7.9 7.1 28.3 14.6 28.3 7.7 0 12.3-25.3 13.4-35l1.4.2c-.4 3.6-4.4 36.2-14.8 36.2z" style="fill:url(#SVGID_6_)"/><radialGradient id="SVGID_7_" cx="143.027" cy="991.504" r="8.591" gradientTransform="translate(0 -970)" gradientUnits="userSpaceOnUse"><stop offset="0" style="stop-color:#9f9500"/><stop offset="1" style="stop-color:#7f7f00"/></radialGradient><path d="M146.5 12.9s5.5 6.6 5.2 9.7c-.4 3-2.6 4-2.6 4v-6.8s-2 9.5-11.8 10.3c-9.9.7 9.2-17.2 9.2-17.2z" style="fill-rule:evenodd;clip-rule:evenodd;fill:url(#SVGID_7_)"/><path style="fill-rule:evenodd;clip-rule:evenodd;fill:#722a62" d="M147.7 7.2v4.3l-23.5 41.8-2.2.9-21.8 1.7-.8 2.4 4.6 8.6-3.6 8.7-14.9 9.8h-5L62.3 72.2l-13-4.3-2.4-1.9-20.6-9.2-1.8-7.1-8-8.8-5.2-31.3z"/><linearGradient id="SVGID_8_" gradientUnits="userSpaceOnUse" x1="49.3" y1="1037.144" x2="124.2" y2="1037.144" gradientTransform="translate(0 -970)"><stop offset="0" style="stop-color:#c77cbd"/><stop offset="1" style="stop-color:#974577"/></linearGradient><path style="opacity:.5;fill-rule:evenodd;clip-rule:evenodd;fill:url(#SVGID_8_);enable-background:new" d="m100.2 55.9-.8 2.4 4.6 8.6-3.6 8.7-14.9 9.8h-5L62.3 72.2l-13-4.3L80.7 58H84l13.2-6.9 4.2-2.2 15.3 4.4h7.5l-2.2.9z"/><path d="M96.3 48c-.5-.7-8.6-.6-10.2 0s-4.8 7.8-4.8 8.5 3.2.2 6.9-1.8 7.3-3.5 8.2-4.3c.8-.8-.1-2.4-.1-2.4z" style="opacity:.4;fill-rule:evenodd;clip-rule:evenodd;fill:#ffd8b3;enable-background:new"/><path class="st10" d="M87.9 44.9c.2.8 9.1 2.9 9.8 2.5.7-.3 3.6-1 4.4-2s9-25.8 9.3-27.8-24.7-5.6-26.9-5.2-3.4 3.8-3.2 5.2c.2 1.3 6.6 27.3 6.6 27.3zM85.6 46.3c-.3 1-5.6 10.4-6.1 10.8-.5.5-28.3 10.5-30.2 10.8L46.9 66s.8-47.4 2.4-49.4c1.6-1.9 28.2-5.5 29.3-4.9 1.1.6 8.2 30.9 7 34.6zM16.5 40.9s16.9 5.6 20.2 5.4 7.9-2.4 9.1-5.9c1.3-3.5 1.8-23.1 1-24.3s-29.3-3.5-34.5 0l4.2 24.8z"/><linearGradient id="SVGID_9_" gradientUnits="userSpaceOnUse" x1="16.538" y1="1015.294" x2="41.872" y2="1015.294" gradientTransform="translate(0 -970)"><stop offset="0" style="stop-color:#c77cbd"/><stop offset="1" style="stop-color:#974577"/></linearGradient><path d="m24.5 49.7-.8-3.4 12.8 1.2 5.4 1.4-5.6-2.6s-11.1-2.5-19.8-5.4l8 8.8z" style="opacity:.8;fill-rule:evenodd;clip-rule:evenodd;fill:url(#SVGID_9_);enable-background:new"/><linearGradient id="SVGID_10_" gradientUnits="userSpaceOnUse" x1="11.8" y1="987.644" x2="147.8" y2="987.644" gradientTransform="translate(0 -970)"><stop offset="0" style="stop-color:#c77cbd"/><stop offset="1" style="stop-color:#974577"/></linearGradient><path d="m12.2 14.5.3 1.5s15.7-3.9 34.5 0l1.6 6s.2-4.4.8-5.5 27.7-5.7 29.3-4.9 4.8 16.7 4.8 16.7l.2-1.3-2.2-9.5s.2-4.6 3.2-5.2c3-.6 25.5 2.4 26.5 6.5l-2 6.3s11.5-11.7 31.5-1.2l7.1-12.6V7l-136 3.5.4 4z" style="opacity:.5;fill-rule:evenodd;clip-rule:evenodd;fill:url(#SVGID_10_);enable-background:new"/><linearGradient id="SVGID_11_" gradientUnits="userSpaceOnUse" x1="101.8" y1="1055.394" x2="101.8" y2="996.094" gradientTransform="translate(0 -970)"><stop offset="0" style="stop-color:#c77cbd"/><stop offset="1" style="stop-color:#974577"/></linearGradient><path d="M116.7 53.3h7.4l-2.2 1-21.8 1.7-.7 2.4L104 67l-3.6 8.6-14.9 9.8 1.2-.8s10.4-6.9 10-11.6-4-10.9-4-10.9H89l-3.3-2.5-6.2-1.2L84 58l13.2-7-.9-3s4.7-1.8 5.8-2.6c1-.8 6.7-19.3 6.7-19.3L103.7 47l1 1.9 12 4.4z" style="opacity:.5;fill-rule:evenodd;clip-rule:evenodd;fill:url(#SVGID_11_);enable-background:new"/><linearGradient id="SVGID_12_" gradientUnits="userSpaceOnUse" x1="75.15" y1="1044.345" x2="75.15" y2="1033.001" gradientTransform="translate(0 -970)"><stop offset="0" style="stop-color:#c77cbd"/><stop offset="1" style="stop-color:#974577"/></linearGradient><path d="M62.3 72.2S71.5 70.5 88 63c0 0-19.3 8.1-22.8 11.3l-2.9-2.1z" style="opacity:.5;fill-rule:evenodd;clip-rule:evenodd;fill:url(#SVGID_12_);enable-background:new"/><linearGradient id="SVGID_13_" gradientUnits="userSpaceOnUse" x1="46.9" y1="1010.294" x2="84.3" y2="1010.294" gradientTransform="translate(0 -970)"><stop offset="0" style="stop-color:#c77cbd"/><stop offset="1" style="stop-color:#974577"/></linearGradient><path style="opacity:.2;fill-rule:evenodd;clip-rule:evenodd;fill:url(#SVGID_13_);enable-background:new" d="m47.6 40.9 35.8-12.4.9 6.2-37.4 17.4z"/><path class="st16" d="m47.7 36.5 34.9-10.3v-1.5l-34.9 8.6zM14.2 27l33-.8-.4 7.8-31.6-1z"/><linearGradient id="SVGID_14_" gradientUnits="userSpaceOnUse" x1="86.23" y1="1010.944" x2="104.379" y2="1010.944" gradientTransform="translate(0 -970)"><stop offset="0" style="stop-color:#c77cbd"/><stop offset="1" style="stop-color:#974577"/></linearGradient><path style="opacity:.2;fill-rule:evenodd;clip-rule:evenodd;fill:url(#SVGID_14_);enable-background:new" d="m86.2 38.1 18.2 1.7-1.7 4-15.8-2.9z"/><g><radialGradient id="SVGID_15_" cx="79.94" cy="981.742" r="56.932" gradientTransform="translate(0 -970)" gradientUnits="userSpaceOnUse"><stop offset="0" style="stop-color:#9f9500"/><stop offset="1" style="stop-color:#7f7f00"/></radialGradient><path d="M11.3 7.2S3.1.8 0 4.2c-.3.4 9.4 5 9.4 5s-7.7 8.5-7.7 9.7 14-7.4 20.9-7.4c0 0 1.6 2.2 12.8 2.8 11.3.6 12.1-3 36.5-4.2s39.9 7.2 42.8 6.8-3.5-5.4-3.5-5.4 6.2 1.8 15.1 1 7.7-4.1 7.7-4.1l12.1.5s9.4 10.7 10.4 11.3c1.1.6 2.2-11.8-7-14.3 0 0 9.5 2.3 10.3 1.9.8-.4-4-5.6-12.2-3.4L11.3 7.2z" style="fill-rule:evenodd;clip-rule:evenodd;fill:url(#SVGID_15_)"/><path d="M11.3 7.2s19.4 2.9 64 2.9c43 0 72.3-5.5 72.3-5.5L11.3 7.2z" style="opacity:.8;fill-rule:evenodd;clip-rule:evenodd;fill:#ffff70;enable-background:new"/><radialGradient id="SVGID_16_" cx="96.832" cy="981.841" r="15.777" gradientTransform="translate(0 -970)" gradientUnits="userSpaceOnUse"><stop offset="0" style="stop-color:#dbc000"/><stop offset="1" style="stop-color:#b5a700"/></radialGradient><path d="M75.3 10.1s27-8.2 38.4-1.8c7.5 4.2 4.2 9.8.9 9.5-3.2-.2-22.7-8.9-39.3-7.7z" style="fill-rule:evenodd;clip-rule:evenodd;fill:url(#SVGID_16_)"/><radialGradient id="SVGID_17_" cx="27.837" cy="980.164" r="8.977" gradientTransform="translate(0 -970)" gradientUnits="userSpaceOnUse"><stop offset="0" style="stop-color:#dbc000"/><stop offset="1" style="stop-color:#b5a700"/></radialGradient><path d="M28.3 8.8s-3.6 5.5-1.7 6.4c1.9.9 5.4-5 24-5.5 0-.1-12.2-2.2-22.3-.9z" style="fill-rule:evenodd;clip-rule:evenodd;fill:url(#SVGID_17_)"/></g><g><linearGradient id="SVGID_18_" gradientUnits="userSpaceOnUse" x1="53.802" y1="1025.794" x2="53.802" y2="997.694" gradientTransform="translate(0 -970)"><stop offset="0" style="stop-color:#906361"/><stop offset="1" style="stop-color:#b5888d"/></linearGradient><path d="M62.7 55.8h-2.4S48.5 53 47.6 52.6c-.8-.4-7.4-10.8-7.4-10.8L46 28.5l3.2-.8 17.5 6.5.7 3.3c.1 0-2.2 12.9-4.7 18.3z" style="fill-rule:evenodd;clip-rule:evenodd;fill:url(#SVGID_18_)"/><path class="st23" d="m40.4 41.7 4.2 2.1h8.2l14-9.6-17.5-6.5-3.2.8z"/><linearGradient id="SVGID_19_" gradientUnits="userSpaceOnUse" x1="47.725" y1="1014.994" x2="67.525" y2="1014.994" gradientTransform="translate(0 -970)"><stop offset="0" style="stop-color:#c77cbd"/><stop offset="1" style="stop-color:#974577"/></linearGradient><path d="m47.7 52.5 10.5 1.2-5.4-9.9 14-9.6.7 3.3s-2.3 13.1-4.8 18.3h-2.4l-12.6-3.3z" style="opacity:.5;fill-rule:evenodd;clip-rule:evenodd;fill:url(#SVGID_19_);enable-background:new"/><path style="fill-rule:evenodd;clip-rule:evenodd;fill:#b4abb0" d="m50.1 43.8 4.6-1.3-1.3 2.5z"/><linearGradient id="SVGID_20_" gradientUnits="userSpaceOnUse" x1="47.7" y1="1015.494" x2="72.7" y2="1015.494" gradientTransform="translate(0 -970)"><stop offset="0" style="stop-color:#c77cbd"/><stop offset="1" style="stop-color:#974577"/></linearGradient><path style="opacity:.5;fill-rule:evenodd;clip-rule:evenodd;fill:url(#SVGID_20_);enable-background:new" d="m47.7 52.5 13.1 4.3h6.7l5.2-7.1-5.2-12.2-.7-3.3-12.1 8.3-1.3 2.5 7 10.8z"/></g><g><radialGradient id="SVGID_21_" cx="94.374" cy="995.301" r="4.207" gradientTransform="translate(0 -970)" gradientUnits="userSpaceOnUse"><stop offset="0" style="stop-color:#b5888d"/><stop offset="1" style="stop-color:#906354"/></radialGradient><path d="m92.2 26.6.5 1.6 4.6 3 1.5-.8 1.6-3.8s-3.2-3.6-5-4c.1 0-1.9 1-3.2 4z" style="fill-rule:evenodd;clip-rule:evenodd;fill:url(#SVGID_21_)"/><linearGradient id="SVGID_22_" gradientUnits="userSpaceOnUse" x1="92.777" y1="998.894" x2="100.447" y2="998.894" gradientTransform="translate(0 -970)"><stop offset="0" style="stop-color:#c77cbd"/><stop offset="1" style="stop-color:#974577"/></linearGradient><path style="opacity:.5;fill-rule:evenodd;clip-rule:evenodd;fill:url(#SVGID_22_);enable-background:new" d="M100.4 26.6h-4.1v3.1l-3.5-1.5 4.6 3 1.4-.7z"/><path class="st23" d="M92.2 26.6h8.2s-1.9-2.6-5-4c.1 0-1.6.8-3.2 4z"/><linearGradient id="SVGID_23_" gradientUnits="userSpaceOnUse" x1="92.777" y1="999.694" x2="101.428" y2="999.694" gradientTransform="translate(0 -970)"><stop offset="0" style="stop-color:#c77cbd"/><stop offset="1" style="stop-color:#974577"/></linearGradient><path style="opacity:.5;fill-rule:evenodd;clip-rule:evenodd;fill:url(#SVGID_23_);enable-background:new" d="m100.4 26.6 1 2.3-.7 3.4-1.7.5-6.2-4.6 3.5 2.4v-4h1.8z"/></g><g><linearGradient id="SVGID_24_" gradientUnits="userSpaceOnUse" x1="129.75" y1="1019.575" x2="129.75" y2="1002.189" gradientTransform="translate(0 -970)"><stop offset="0" style="stop-color:#906361"/><stop offset="1" style="stop-color:#b5888d"/></linearGradient><path d="M126.2 49.6s-5.1-3.9-5.2-5.3.3-7.6.9-8.7c.6-1.1 13.1-3.8 14.1-3.4.9.4 2.7 8.7 2.5 9.5s-12.3 7.9-12.3 7.9z" style="fill-rule:evenodd;clip-rule:evenodd;fill:url(#SVGID_24_)"/><linearGradient id="SVGID_25_" gradientUnits="userSpaceOnUse" x1="118.326" y1="1014.444" x2="138.494" y2="1014.444" gradientTransform="translate(0 -970)"><stop offset="0" style="stop-color:#c77cbd"/><stop offset="1" style="stop-color:#974577"/></linearGradient><path style="opacity:.5;fill-rule:evenodd;clip-rule:evenodd;fill:url(#SVGID_25_);enable-background:new" d="m121.9 35.6 11.6 3.1 5 3-12.3 7.9-2 3.7-5.9-8z"/></g></svg>