<svg version="1.1" id="Layer_1" xmlns="http://www.w3.org/2000/svg" x="0" y="0" viewBox="0 0 100 78.1" style="enable-background:new 0 0 100 78.1" xml:space="preserve"><style>.st4,.st6{opacity:.4;fill-rule:evenodd;clip-rule:evenodd;fill:#7e4279;enable-background:new}.st6{opacity:.2;fill:#d579a1}</style><radialGradient id="SVGID_1_" cx="29.965" cy="35.85" r="25.518" gradientTransform="matrix(1 0 0 -1 0 80)" gradientUnits="userSpaceOnUse"><stop offset="0" style="stop-color:#9f9500"/><stop offset="1" style="stop-color:#7f7f00"/></radialGradient><path d="M32.5 78.1c-.3 0-.6 0-.8-.2-9-3.2-13.4-57.8-13.9-64l1.5-.1c1.8 24 6.8 60.5 12.9 62.7.3.1.6.1.9-.1 5.7-4 7.4-49.2 7.6-66.2h1.5c-.1 6.4-.8 62.3-8.2 67.5-.5.3-1 .4-1.5.4z" style="fill:url(#SVGID_1_)"/><radialGradient id="SVGID_2_" cx="57.3" cy="39.3" r="28.15" gradientTransform="matrix(1 0 0 -1 0 80)" gradientUnits="userSpaceOnUse"><stop offset="0" style="stop-color:#9f9500"/><stop offset="1" style="stop-color:#7f7f00"/></radialGradient><path d="M55.6 73.8h-.7C37.9 72 35.2 16 35.1 13.6l1.5-.1c0 .6 2.7 57.1 18.4 58.7h.5C68.2 72.2 76 25.8 78 7.6l1.5.2c-.3 2.7-7.3 66-23.9 66z" style="fill:url(#SVGID_2_)"/><path style="fill-rule:evenodd;clip-rule:evenodd;fill:#722a62" d="m16 6.1 8.1 31.5 2.2 2.2 10.7 6 3.9 8.7 20.3 5.2L71.9 56l6.8-1.5L92.8 6.1z"/><linearGradient id="SVGID_3_" gradientUnits="userSpaceOnUse" x1="24.1" y1="31.35" x2="78.7" y2="31.35" gradientTransform="matrix(1 0 0 -1 0 80)"><stop offset="0" style="stop-color:#c77cbd"/><stop offset="1" style="stop-color:#974577"/></linearGradient><path style="opacity:.5;fill-rule:evenodd;clip-rule:evenodd;fill:url(#SVGID_3_);enable-background:new" d="m24.1 37.6 4.2 2.2 20 .6 3.4 1.3 9.4 6.9 17.6 5.9-6.8 1.5-10.7 3.7-20.3-5.2-3.9-8.7-10.7-6z"/><path class="st4" d="M26.3 38.7c1 1.1 20.5.3 21.6 0 1.2-.3 1.8-24.8 0-28.4C46.1 6.7 18.4 7 17.5 7.7c-.9.6 6.8 28.8 8.8 31z"/><path d="M47.9 7.3c-.9.8 1.5 5.9 2.5 6.6 1 .7 9.4-5.5 9.4-6.6s-10.9-1-11.9 0z" style="opacity:.4;fill-rule:evenodd;clip-rule:evenodd;fill:#ff5e31;enable-background:new"/><path class="st4" d="M50.4 39.7c-1.3-1.3-.7-21.5 1-24.2C53 12.9 63.1 7.7 67 8.4S79 26.2 78.7 33 66.5 47.8 64.3 47.7c-2.2-.2-12.5-6.6-13.9-8z"/><path class="st6" d="m20.8 22.6 28.2.7v2.3l-27.6-1zM20 19.5l28.9-1.7-.3-4.5-30.1.6z"/><linearGradient id="SVGID_4_" gradientUnits="userSpaceOnUse" x1="49.8" y1="53.5" x2="78.3" y2="53.5" gradientTransform="matrix(1 0 0 -1 0 80)"><stop offset="0" style="stop-color:#c77cbd"/><stop offset="1" style="stop-color:#974577"/></linearGradient><path style="opacity:.2;fill-rule:evenodd;clip-rule:evenodd;fill:url(#SVGID_4_);enable-background:new" d="m50.1 23.3 26.8.8 1.4 5-28.5.6z"/><linearGradient id="SVGID_5_" gradientUnits="userSpaceOnUse" x1="26.3" y1="30.25" x2="78.7" y2="30.25" gradientTransform="matrix(1 0 0 -1 0 80)"><stop offset="0" style="stop-color:#c77cbd"/><stop offset="1" style="stop-color:#974577"/></linearGradient><path style="opacity:.5;fill-rule:evenodd;clip-rule:evenodd;fill:url(#SVGID_5_);enable-background:new" d="m37 45.8 8.8-2.9h7l7.1 5.8-5.5 4.8-13.5 1 20.3 5.2L71.9 56l6.8-1.5-17.6-5.9-9.4-6.9-3.4-1.3-22-.6z"/><linearGradient id="SVGID_6_" gradientUnits="userSpaceOnUse" x1="54.9" y1="59.218" x2="54.9" y2="72.742" gradientTransform="matrix(1 0 0 -1 0 80)"><stop offset="0" style="stop-color:#c77cbd"/><stop offset="1" style="stop-color:#974577"/></linearGradient><path d="M19.8 20.8s7.3-9.5 13.4-10.1 15.3 2.5 15.3 2.5l2.5 3.1s21.5-5.5 38.7 0l2.7-9.1-75 .4 2.4 13.2z" style="opacity:.5;fill-rule:evenodd;clip-rule:evenodd;fill:url(#SVGID_6_);enable-background:new"/><radialGradient id="SVGID_7_" cx="50.05" cy="70.123" r="36.004" gradientTransform="matrix(1 0 0 -1 0 80)" gradientUnits="userSpaceOnUse"><stop offset="0" style="stop-color:#9f9500"/><stop offset="1" style="stop-color:#7f7f00"/></radialGradient><path d="M18.5 6.1S7.4 3 0 7.3l13.6 1.1s-3.7 9.4-2.5 11.2c1.1 1.8 13-6.2 13-6.2l-1.3 4s3.7-6.6 9.2-8.9 44.5 5 46.8 4.9 2.6-4.1 2.6-4.1 13.5 3.7 16.7 4.1c0 0-.8-7.1-5.7-8.2l7.7-5s-5.2-.8-12.5 5.7l-69.1.2z" style="fill-rule:evenodd;clip-rule:evenodd;fill:url(#SVGID_7_)"/><path d="M18.5 6.1s46.6 3.8 69-.4l-69 .4z" style="opacity:.8;fill-rule:evenodd;clip-rule:evenodd;fill:#ffff70;enable-background:new"/><radialGradient id="SVGID_8_" cx="19.939" cy="74.593" r="11.954" gradientTransform="matrix(1 0 0 -1 0 80)" gradientUnits="userSpaceOnUse"><stop offset="0" style="stop-color:#dbc000"/><stop offset="1" style="stop-color:#b5a700"/></radialGradient><path d="M21.6 5.8S13.3 20.4 16 18.9c4.5-2.5 11.5-11.1 15.9-12.7l-10.3-.4z" style="fill-rule:evenodd;clip-rule:evenodd;fill:url(#SVGID_8_)"/><radialGradient id="SVGID_9_" cx="84.793" cy="74.463" r="7.71" gradientTransform="matrix(1 0 0 -1 0 80)" gradientUnits="userSpaceOnUse"><stop offset="0" style="stop-color:#dbc000"/><stop offset="1" style="stop-color:#b5a700"/></radialGradient><path d="M81.8 5.8s7.9 2.3 10.7 8.2c0 0 2.3-5.6-4.9-8.3l-5.8.1z" style="fill-rule:evenodd;clip-rule:evenodd;fill:url(#SVGID_9_)"/><linearGradient id="SVGID_10_" gradientUnits="userSpaceOnUse" x1="86.75" y1="32.4" x2="86.75" y2="61.044" gradientTransform="matrix(1 0 0 -1 0 80)"><stop offset="0" style="stop-color:#906361"/><stop offset="1" style="stop-color:#b5888d"/></linearGradient><path style="fill-rule:evenodd;clip-rule:evenodd;fill:url(#SVGID_10_)" d="m89.1 19 3.7 13.7-.3 6.6-11.8 8.3z"/><linearGradient id="SVGID_11_" gradientUnits="userSpaceOnUse" x1="49.8" y1="45.389" x2="49.8" y2="54.358" gradientTransform="matrix(1 0 0 -1 0 80)"><stop offset="0" style="stop-color:#906361"/><stop offset="1" style="stop-color:#b5888d"/></linearGradient><path style="fill-rule:evenodd;clip-rule:evenodd;fill:url(#SVGID_11_)" d="M49 25.6 46.6 28l1.2 4.9 2 1.7 3.2-3.2-.5-4.9z"/><linearGradient id="SVGID_12_" gradientUnits="userSpaceOnUse" x1="46.565" y1="48.85" x2="54.411" y2="48.85" gradientTransform="matrix(1 0 0 -1 0 80)"><stop offset="0" style="stop-color:#c77cbd"/><stop offset="1" style="stop-color:#974577"/></linearGradient><path style="opacity:.5;fill-rule:evenodd;clip-rule:evenodd;fill:url(#SVGID_12_);enable-background:new" d="m46.6 28 1.6 1.7 3.8-.9.5-2.3 1.9 3.6v4.5l-3 1.2-1.6-1.2-2-1.7z"/><path style="fill-rule:evenodd;clip-rule:evenodd;fill:#bcabbc" d="m46.6 28 1.6 1.7 3.6-.8.7-2.4-3.5-.9z"/><linearGradient id="SVGID_13_" gradientUnits="userSpaceOnUse" x1="80.7" y1="46.7" x2="92.457" y2="46.7" gradientTransform="matrix(1 0 0 -1 0 80)"><stop offset="0" style="stop-color:#c77cbd"/><stop offset="1" style="stop-color:#974577"/></linearGradient><path style="opacity:.5;fill-rule:evenodd;clip-rule:evenodd;fill:url(#SVGID_13_);enable-background:new" d="m92.5 39.3-5.7-6.6L89.1 19l-8.4 28.6z"/></svg>