<svg width="240" height="240" viewBox="0 0 240 240" fill="none" xmlns="http://www.w3.org/2000/svg">
<path d="M120 0C87.435 0 83.34 0.15 70.545 0.72C57.75 1.32 49.035 3.33 41.4 6.3C33.3914 9.31229 26.1374 14.0374 20.145 20.145C14.0411 26.1404 9.31661 33.3936 6.3 41.4C3.33 49.02 1.305 57.75 0.72 70.5C0.15 83.325 0 87.405 0 120.015C0 152.595 0.15 156.675 0.72 169.47C1.32 182.25 3.33 190.965 6.3 198.6C9.375 206.49 13.47 213.18 20.145 219.855C26.805 226.53 33.495 230.64 41.385 233.7C49.035 236.67 57.735 238.695 70.515 239.28C83.325 239.85 87.405 240 120 240C152.595 240 156.66 239.85 169.47 239.28C182.235 238.68 190.98 236.67 198.615 233.7C206.618 230.686 213.867 225.961 219.855 219.855C226.53 213.18 230.625 206.49 233.7 198.6C236.655 190.965 238.68 182.25 239.28 169.47C239.85 156.675 240 152.595 240 120C240 87.405 239.85 83.325 239.28 70.515C238.68 57.75 236.655 49.02 233.7 41.4C230.684 33.3934 225.959 26.1401 219.855 20.145C213.864 14.0351 206.61 9.30968 198.6 6.3C190.95 3.33 182.22 1.305 169.455 0.72C156.645 0.15 152.58 0 119.97 0H120.015H120ZM109.245 21.63H120.015C152.055 21.63 155.85 21.735 168.495 22.32C180.195 22.845 186.555 24.81 190.785 26.445C196.38 28.62 200.385 31.23 204.585 35.43C208.785 39.63 211.38 43.62 213.555 49.23C215.205 53.445 217.155 59.805 217.68 71.505C218.265 84.15 218.385 87.945 218.385 119.97C218.385 151.995 218.265 155.805 217.68 168.45C217.155 180.15 215.19 186.495 213.555 190.725C211.631 195.935 208.56 200.647 204.57 204.51C200.37 208.71 196.38 211.305 190.77 213.48C186.57 215.13 180.21 217.08 168.495 217.62C155.85 218.19 152.055 218.325 120.015 218.325C87.975 218.325 84.165 218.19 71.52 217.62C59.82 217.08 53.475 215.13 49.245 213.48C44.0325 211.559 39.3169 208.494 35.445 204.51C31.4513 200.64 28.3758 195.925 26.445 190.71C24.81 186.495 22.845 180.135 22.32 168.435C21.75 155.79 21.63 151.995 21.63 119.94C21.63 87.9 21.75 84.12 22.32 71.475C22.86 59.775 24.81 53.415 26.46 49.185C28.635 43.59 31.245 39.585 35.445 35.385C39.645 31.185 43.635 28.59 49.245 26.415C53.475 24.765 59.82 22.815 71.52 22.275C82.59 21.765 86.88 21.615 109.245 21.6V21.63V21.63ZM184.065 41.55C182.174 41.55 180.301 41.9225 178.554 42.6461C176.807 43.3698 175.22 44.4305 173.883 45.7677C172.545 47.1048 171.485 48.6923 170.761 50.4394C170.037 52.1864 169.665 54.059 169.665 55.95C169.665 57.841 170.037 59.7135 170.761 61.4606C171.485 63.2077 172.545 64.7952 173.883 66.1323C175.22 67.4695 176.807 68.5302 178.554 69.2539C180.301 69.9775 182.174 70.35 184.065 70.35C187.884 70.35 191.547 68.8329 194.247 66.1323C196.948 63.4318 198.465 59.7691 198.465 55.95C198.465 52.1309 196.948 48.4682 194.247 45.7677C191.547 43.0671 187.884 41.55 184.065 41.55V41.55ZM120.015 58.38C111.841 58.2525 103.723 59.7523 96.1347 62.7921C88.5459 65.8319 81.6377 70.3511 75.8123 76.0864C69.9868 81.8216 65.3605 88.6585 62.2026 96.1989C59.0448 103.739 57.4185 111.833 57.4185 120.007C57.4185 128.182 59.0448 136.276 62.2026 143.816C65.3605 151.356 69.9868 158.193 75.8123 163.929C81.6377 169.664 88.5459 174.183 96.1347 177.223C103.723 180.263 111.841 181.763 120.015 181.635C136.193 181.383 151.623 174.779 162.975 163.249C174.326 151.719 180.689 136.188 180.689 120.007C180.689 103.827 174.326 88.2962 162.975 76.7662C151.623 65.2363 136.193 58.6324 120.015 58.38V58.38ZM120.015 79.995C130.625 79.995 140.8 84.2098 148.303 91.7122C155.805 99.2146 160.02 109.39 160.02 120C160.02 130.61 155.805 140.785 148.303 148.288C140.8 155.79 130.625 160.005 120.015 160.005C109.405 160.005 99.2296 155.79 91.7272 148.288C84.2248 140.785 80.01 130.61 80.01 120C80.01 109.39 84.2248 99.2146 91.7272 91.7122C99.2296 84.2098 109.405 79.995 120.015 79.995V79.995Z" fill="#F7E1C9"/>
</svg>
